<svg width="24" height="24" viewBox="0 0 24 24" fill="none" xmlns="http://www.w3.org/2000/svg">
<path d="M22.001 12C22.001 6.49 17.511 2 12.001 2C6.49098 2 2.00098 6.49 2.00098 12C2.00098 14.9 3.25098 17.51 5.23098 19.34C5.23098 19.35 5.23098 19.35 5.22098 19.36C5.32098 19.46 5.44098 19.54 5.54098 19.63C5.60098 19.68 5.65098 19.73 5.71098 19.77C5.89098 19.92 6.09098 20.06 6.28098 20.2C6.35098 20.25 6.41098 20.29 6.48098 20.34C6.67098 20.47 6.87098 20.59 7.08098 20.7C7.15098 20.74 7.23098 20.79 7.30098 20.83C7.50098 20.94 7.71098 21.04 7.93098 21.13C8.01098 21.17 8.09098 21.21 8.17098 21.24C8.39098 21.33 8.61098 21.41 8.83098 21.48C8.91098 21.51 8.99098 21.54 9.07098 21.56C9.31098 21.63 9.55098 21.69 9.79098 21.75C9.86098 21.77 9.93098 21.79 10.011 21.8C10.291 21.86 10.571 21.9 10.861 21.93C10.901 21.93 10.941 21.94 10.981 21.95C11.321 21.98 11.661 22 12.001 22C12.341 22 12.681 21.98 13.011 21.95C13.051 21.95 13.091 21.94 13.131 21.93C13.421 21.9 13.701 21.86 13.981 21.8C14.051 21.79 14.121 21.76 14.201 21.75C14.441 21.69 14.691 21.64 14.921 21.56C15.001 21.53 15.081 21.5 15.161 21.48C15.381 21.4 15.611 21.33 15.821 21.24C15.901 21.21 15.981 21.17 16.061 21.13C16.271 21.04 16.481 20.94 16.691 20.83C16.771 20.79 16.841 20.74 16.911 20.7C17.111 20.58 17.311 20.47 17.511 20.34C17.581 20.3 17.641 20.25 17.711 20.2C17.911 20.06 18.101 19.92 18.281 19.77C18.341 19.72 18.391 19.67 18.451 19.63C18.561 19.54 18.671 19.45 18.771 19.36C18.771 19.35 18.771 19.35 18.761 19.34C20.751 17.51 22.001 14.9 22.001 12ZM16.941 16.97C14.231 15.15 9.79098 15.15 7.06098 16.97C6.62098 17.26 6.26098 17.6 5.96098 17.97C4.44098 16.43 3.50098 14.32 3.50098 12C3.50098 7.31 7.31098 3.5 12.001 3.5C16.691 3.5 20.501 7.31 20.501 12C20.501 14.32 19.561 16.43 18.041 17.97C17.751 17.6 17.381 17.26 16.941 16.97Z" fill="url(#paint0_linear_1279_1079)"/>
<path d="M12.001 6.93005C9.93098 6.93005 8.25098 8.61005 8.25098 10.6801C8.25098 12.7101 9.84098 14.3601 11.951 14.4201C11.981 14.4201 12.021 14.4201 12.041 14.4201C12.061 14.4201 12.091 14.4201 12.111 14.4201C12.121 14.4201 12.131 14.4201 12.131 14.4201C14.151 14.3501 15.741 12.7101 15.751 10.6801C15.751 8.61005 14.071 6.93005 12.001 6.93005Z" fill="url(#paint1_linear_1279_1079)"/>
<defs>
<linearGradient id="paint0_linear_1279_1079" x1="-50.9201" y1="-42.9103" x2="34.634" y2="-35.8909" gradientUnits="userSpaceOnUse">
<stop stop-color="#0338D1"/>
<stop offset="0.38297" stop-color="#1CFCFC"/>
<stop offset="0.6239" stop-color="#36FCFC"/>
<stop offset="0.885417" stop-color="#0495E7"/>
</linearGradient>
<linearGradient id="paint1_linear_1279_1079" x1="-11.5944" y1="-9.88885" x2="20.4878" y2="-7.25311" gradientUnits="userSpaceOnUse">
<stop stop-color="#0338D1"/>
<stop offset="0.38297" stop-color="#1CFCFC"/>
<stop offset="0.6239" stop-color="#36FCFC"/>
<stop offset="0.885417" stop-color="#0495E7"/>
</linearGradient>
</defs>
</svg>
