<svg width="24" height="24" viewBox="0 0 24 24" fill="none" xmlns="http://www.w3.org/2000/svg">
<path d="M10.001 22H14.001C19.001 22 21.001 20 21.001 15V9C21.001 4 19.001 2 14.001 2H10.001C5.00098 2 3.00098 4 3.00098 9V15C3.00098 20 5.00098 22 10.001 22Z" stroke="white" stroke-width="1.5" stroke-linecap="round" stroke-linejoin="round"/>
<path d="M16.501 7.57996V8.57996C16.501 9.39996 15.831 10.08 15.001 10.08H9.00098C8.18098 10.08 7.50098 9.40996 7.50098 8.57996V7.57996C7.50098 6.75996 8.17098 6.07996 9.00098 6.07996H15.001C15.831 6.07996 16.501 6.74996 16.501 7.57996Z" stroke="white" stroke-width="1.5" stroke-linecap="round" stroke-linejoin="round"/>
<path d="M8.1371 14H8.14865" stroke="white" stroke-width="2" stroke-linecap="round" stroke-linejoin="round"/>
<path d="M11.9965 14H12.008" stroke="white" stroke-width="2" stroke-linecap="round" stroke-linejoin="round"/>
<path d="M15.8549 14H15.8664" stroke="white" stroke-width="2" stroke-linecap="round" stroke-linejoin="round"/>
<path d="M8.1371 17.5H8.14865" stroke="white" stroke-width="2" stroke-linecap="round" stroke-linejoin="round"/>
<path d="M11.9965 17.5H12.008" stroke="white" stroke-width="2" stroke-linecap="round" stroke-linejoin="round"/>
<path d="M15.8549 17.5H15.8664" stroke="white" stroke-width="2" stroke-linecap="round" stroke-linejoin="round"/>
</svg>
