<svg width="24" height="24" viewBox="0 0 24 24" fill="none" xmlns="http://www.w3.org/2000/svg">
<path d="M16.001 2H8.00098C5.24098 2 3.00098 4.24 3.00098 7V17C3.00098 19.76 5.24098 22 8.00098 22H16.001C18.761 22 21.001 19.76 21.001 17V7C21.001 4.24 18.761 2 16.001 2ZM8.86098 18.63C8.67098 18.82 8.42098 18.92 8.16098 18.92C7.89098 18.92 7.64098 18.82 7.45098 18.63C7.26098 18.44 7.15098 18.19 7.15098 17.92C7.15098 17.66 7.26098 17.4 7.45098 17.21C7.54098 17.12 7.65098 17.05 7.77098 17C8.02098 16.9 8.29098 16.9 8.54098 17C8.60098 17.02 8.66098 17.05 8.71098 17.09C8.77098 17.12 8.82098 17.17 8.86098 17.21C9.05098 17.4 9.16098 17.66 9.16098 17.92C9.16098 18.19 9.05098 18.44 8.86098 18.63ZM7.15098 13.92C7.15098 13.79 7.18098 13.66 7.23098 13.54C7.28098 13.41 7.35098 13.31 7.45098 13.21C7.68098 12.98 8.03098 12.87 8.35098 12.94C8.41098 12.95 8.48098 12.97 8.54098 13C8.60098 13.02 8.66098 13.05 8.71098 13.09C8.77098 13.12 8.82098 13.17 8.86098 13.21C8.95098 13.31 9.03098 13.41 9.08098 13.54C9.13098 13.66 9.15098 13.79 9.15098 13.92C9.15098 14.19 9.05098 14.44 8.86098 14.63C8.67098 14.82 8.42098 14.92 8.16098 14.92C8.02098 14.92 7.89098 14.89 7.77098 14.84C7.65098 14.79 7.54098 14.72 7.45098 14.63C7.26098 14.44 7.15098 14.19 7.15098 13.92ZM12.861 18.63C12.771 18.72 12.661 18.79 12.541 18.84C12.421 18.89 12.291 18.92 12.151 18.92C11.891 18.92 11.641 18.82 11.451 18.63C11.261 18.44 11.151 18.19 11.151 17.92C11.151 17.85 11.161 17.79 11.171 17.72C11.191 17.66 11.211 17.6 11.231 17.54C11.261 17.48 11.291 17.42 11.321 17.36C11.361 17.31 11.401 17.26 11.451 17.21C11.541 17.12 11.651 17.05 11.771 17C12.141 16.85 12.581 16.93 12.861 17.21C13.051 17.4 13.151 17.66 13.151 17.92C13.151 18.19 13.051 18.44 12.861 18.63ZM12.861 14.63C12.671 14.82 12.421 14.92 12.151 14.92C11.891 14.92 11.641 14.82 11.451 14.63C11.261 14.44 11.151 14.19 11.151 13.92C11.151 13.66 11.261 13.4 11.451 13.21C11.821 12.84 12.491 12.84 12.861 13.21C12.951 13.31 13.031 13.41 13.081 13.54C13.131 13.66 13.151 13.79 13.151 13.92C13.151 14.19 13.051 14.44 12.861 14.63ZM9.00098 10.46C7.97098 10.46 7.12098 9.62 7.12098 8.58V7.58C7.12098 6.55 7.96098 5.7 9.00098 5.7H15.001C16.031 5.7 16.881 6.54 16.881 7.58V8.58C16.881 9.61 16.041 10.46 15.001 10.46H9.00098ZM16.861 18.63C16.671 18.82 16.421 18.92 16.151 18.92C16.021 18.92 15.891 18.89 15.771 18.84C15.651 18.79 15.541 18.72 15.451 18.63C15.261 18.44 15.161 18.19 15.161 17.92C15.161 17.66 15.261 17.4 15.451 17.21C15.721 16.93 16.171 16.85 16.541 17C16.661 17.05 16.771 17.12 16.861 17.21C17.051 17.4 17.151 17.66 17.151 17.92C17.151 18.19 17.051 18.44 16.861 18.63ZM17.081 14.3C17.031 14.42 16.961 14.53 16.861 14.63C16.671 14.82 16.421 14.92 16.151 14.92C15.891 14.92 15.641 14.82 15.451 14.63C15.261 14.44 15.151 14.19 15.151 13.92C15.151 13.66 15.261 13.4 15.451 13.21C15.821 12.84 16.491 12.84 16.861 13.21C17.051 13.4 17.161 13.66 17.161 13.92C17.161 14.05 17.131 14.18 17.081 14.3Z" fill="url(#paint0_linear_1279_1056)"/>
<defs>
<linearGradient id="paint0_linear_1279_1056" x1="-44.628" y1="-42.9103" x2="32.4686" y2="-37.2174" gradientUnits="userSpaceOnUse">
<stop stop-color="#0338D1"/>
<stop offset="0.38297" stop-color="#1CFCFC"/>
<stop offset="0.6239" stop-color="#36FCFC"/>
<stop offset="0.885417" stop-color="#0495E7"/>
</linearGradient>
</defs>
</svg>
