<svg width="24" height="24" viewBox="0 0 24 24" fill="none" xmlns="http://www.w3.org/2000/svg">
<path d="M22.001 8.52V3.98C22.001 2.57 21.361 2 19.771 2H15.731C14.141 2 13.501 2.57 13.501 3.98V8.51C13.501 9.93 14.141 10.49 15.731 10.49H19.771C21.361 10.5 22.001 9.93 22.001 8.52Z" stroke="white" stroke-width="1.5" stroke-linecap="round" stroke-linejoin="round"/>
<path d="M22.001 19.77V15.73C22.001 14.14 21.361 13.5 19.771 13.5H15.731C14.141 13.5 13.501 14.14 13.501 15.73V19.77C13.501 21.36 14.141 22 15.731 22H19.771C21.361 22 22.001 21.36 22.001 19.77Z" stroke="white" stroke-width="1.5" stroke-linecap="round" stroke-linejoin="round"/>
<path d="M10.501 8.52V3.98C10.501 2.57 9.86098 2 8.27098 2H4.23098C2.64098 2 2.00098 2.57 2.00098 3.98V8.51C2.00098 9.93 2.64098 10.49 4.23098 10.49H8.27098C9.86098 10.5 10.501 9.93 10.501 8.52Z" stroke="white" stroke-width="1.5" stroke-linecap="round" stroke-linejoin="round"/>
<path d="M10.501 19.77V15.73C10.501 14.14 9.86098 13.5 8.27098 13.5H4.23098C2.64098 13.5 2.00098 14.14 2.00098 15.73V19.77C2.00098 21.36 2.64098 22 4.23098 22H8.27098C9.86098 22 10.501 21.36 10.501 19.77Z" stroke="white" stroke-width="1.5" stroke-linecap="round" stroke-linejoin="round"/>
</svg>
