<svg width="32" height="32" viewBox="0 0 32 32" fill="none" xmlns="http://www.w3.org/2000/svg">
<g filter="url(#filter0_b_1445_4650)">
<circle cx="16" cy="16" r="16" fill="url(#paint0_radial_1445_4650)" fill-opacity="0.4"/>
<circle cx="16" cy="16" r="15.5" stroke="url(#paint1_radial_1445_4650)"/>
<circle cx="16" cy="16" r="15.5" stroke="url(#paint2_radial_1445_4650)"/>
</g>
<g filter="url(#filter1_di_1445_4650)">
<path d="M22.26 10.2569C21.1086 9.72856 19.874 9.33934 18.583 9.11641C18.5595 9.11211 18.5361 9.12286 18.5239 9.14437C18.3652 9.42678 18.1893 9.79522 18.0661 10.0848C16.6776 9.87694 15.2963 9.87694 13.9363 10.0848C13.8131 9.78878 13.6309 9.42678 13.4714 9.14437C13.4592 9.12358 13.4358 9.11283 13.4123 9.11641C12.1221 9.33863 10.8874 9.72785 9.73533 10.2569C9.72535 10.2612 9.71681 10.2683 9.71113 10.2776C7.36925 13.7764 6.72771 17.1891 7.04242 20.5595C7.04385 20.576 7.0531 20.5918 7.06592 20.6018C8.61103 21.7365 10.1077 22.4254 11.5766 22.882C11.6002 22.8891 11.6251 22.8805 11.64 22.8612C11.9875 22.3867 12.2972 21.8863 12.5628 21.3602C12.5785 21.3294 12.5635 21.2928 12.5315 21.2806C12.0402 21.0942 11.5724 20.867 11.1224 20.609C11.0868 20.5882 11.0839 20.5373 11.1167 20.5129C11.2114 20.4419 11.3061 20.3681 11.3965 20.2936C11.4129 20.28 11.4357 20.2771 11.4549 20.2857C14.4112 21.6354 17.6118 21.6354 20.5333 20.2857C20.5525 20.2764 20.5753 20.2792 20.5924 20.2929C20.6828 20.3674 20.7775 20.4419 20.8729 20.5129C20.9057 20.5373 20.9036 20.5882 20.868 20.609C20.418 20.872 19.9501 21.0942 19.4581 21.2799C19.4261 21.2921 19.4118 21.3294 19.4275 21.3602C19.6988 21.8856 20.0085 22.3859 20.3496 22.8605C20.3638 22.8805 20.3895 22.8891 20.413 22.882C21.889 22.4254 23.3857 21.7365 24.9308 20.6018C24.9443 20.5918 24.9529 20.5767 24.9543 20.5602C25.331 16.6637 24.3234 13.2789 22.2835 10.2784C22.2785 10.2683 22.2699 10.2612 22.26 10.2569ZM13.0043 18.5073C12.1142 18.5073 11.3808 17.6901 11.3808 16.6866C11.3808 15.6831 12.1 14.8659 13.0043 14.8659C13.9157 14.8659 14.642 15.6902 14.6277 16.6866C14.6277 17.6901 13.9085 18.5073 13.0043 18.5073ZM19.0067 18.5073C18.1167 18.5073 17.3833 17.6901 17.3833 16.6866C17.3833 15.6831 18.1024 14.8659 19.0067 14.8659C19.9181 14.8659 20.6444 15.6902 20.6301 16.6866C20.6301 17.6901 19.9181 18.5073 19.0067 18.5073Z" fill="white"/>
</g>
<defs>
<filter id="filter0_b_1445_4650" x="-5" y="-5" width="42" height="42" filterUnits="userSpaceOnUse" color-interpolation-filters="sRGB">
<feFlood flood-opacity="0" result="BackgroundImageFix"/>
<feGaussianBlur in="BackgroundImage" stdDeviation="2.5"/>
<feComposite in2="SourceAlpha" operator="in" result="effect1_backgroundBlur_1445_4650"/>
<feBlend mode="normal" in="SourceGraphic" in2="effect1_backgroundBlur_1445_4650" result="shape"/>
</filter>
<filter id="filter1_di_1445_4650" x="1.96777" y="4.11548" width="28.0645" height="23.769" filterUnits="userSpaceOnUse" color-interpolation-filters="sRGB">
<feFlood flood-opacity="0" result="BackgroundImageFix"/>
<feColorMatrix in="SourceAlpha" type="matrix" values="0 0 0 0 0 0 0 0 0 0 0 0 0 0 0 0 0 0 127 0" result="hardAlpha"/>
<feOffset/>
<feGaussianBlur stdDeviation="2.5"/>
<feComposite in2="hardAlpha" operator="out"/>
<feColorMatrix type="matrix" values="0 0 0 0 0.345098 0 0 0 0 0.396078 0 0 0 0 0.94902 0 0 0 0.65 0"/>
<feBlend mode="normal" in2="BackgroundImageFix" result="effect1_dropShadow_1445_4650"/>
<feBlend mode="normal" in="SourceGraphic" in2="effect1_dropShadow_1445_4650" result="shape"/>
<feColorMatrix in="SourceAlpha" type="matrix" values="0 0 0 0 0 0 0 0 0 0 0 0 0 0 0 0 0 0 127 0" result="hardAlpha"/>
<feOffset dx="1" dy="2"/>
<feGaussianBlur stdDeviation="1.5"/>
<feComposite in2="hardAlpha" operator="arithmetic" k2="-1" k3="1"/>
<feColorMatrix type="matrix" values="0 0 0 0 0.345098 0 0 0 0 0.396078 0 0 0 0 0.94902 0 0 0 0.3 0"/>
<feBlend mode="normal" in2="shape" result="effect2_innerShadow_1445_4650"/>
</filter>
<radialGradient id="paint0_radial_1445_4650" cx="0" cy="0" r="1" gradientUnits="userSpaceOnUse" gradientTransform="translate(2.67682) rotate(48.0195) scale(47.8414 34.7508)">
<stop stop-color="#5865F2" stop-opacity="0.36"/>
<stop offset="1" stop-color="#5865F2" stop-opacity="0"/>
</radialGradient>
<radialGradient id="paint1_radial_1445_4650" cx="0" cy="0" r="1" gradientUnits="userSpaceOnUse" gradientTransform="translate(-17.0386 3.27368) rotate(35.1112) scale(36.8924 21.7935)">
<stop stop-color="#5865F2"/>
<stop offset="1" stop-color="white" stop-opacity="0.06"/>
</radialGradient>
<radialGradient id="paint2_radial_1445_4650" cx="0" cy="0" r="1" gradientUnits="userSpaceOnUse" gradientTransform="translate(41.3684 21.4163) rotate(161.34) scale(26.7443 18.1139)">
<stop stop-color="#5865F2"/>
<stop offset="1" stop-color="#5865F2" stop-opacity="0"/>
</radialGradient>
</defs>
</svg>
