<svg width="51" height="52" viewBox="0 0 51 52" fill="none" xmlns="http://www.w3.org/2000/svg">
<g filter="url(#filter0_b_170_6541)">
<ellipse cx="25.3208" cy="25.75" rx="25.3208" ry="25.75" fill="url(#paint0_radial_170_6541)" fill-opacity="0.3"/>
<ellipse cx="25.3208" cy="25.75" rx="25.3208" ry="25.75" fill="url(#paint1_radial_170_6541)" fill-opacity="0.8" style="mix-blend-mode:overlay"/>
<ellipse cx="25.3208" cy="25.75" rx="25.3208" ry="25.75" fill="url(#paint2_radial_170_6541)" fill-opacity="0.05"/>
<path d="M50.2667 25.75C50.2667 39.7702 39.0921 51.125 25.3208 51.125C11.5495 51.125 0.375 39.7702 0.375 25.75C0.375 11.7298 11.5495 0.375 25.3208 0.375C39.0921 0.375 50.2667 11.7298 50.2667 25.75Z" stroke="url(#paint3_radial_170_6541)" stroke-width="0.75"/>
<path d="M50.2667 25.75C50.2667 39.7702 39.0921 51.125 25.3208 51.125C11.5495 51.125 0.375 39.7702 0.375 25.75C0.375 11.7298 11.5495 0.375 25.3208 0.375C39.0921 0.375 50.2667 11.7298 50.2667 25.75Z" stroke="url(#paint4_radial_170_6541)" stroke-width="0.75"/>
<path d="M50.2667 25.75C50.2667 39.7702 39.0921 51.125 25.3208 51.125C11.5495 51.125 0.375 39.7702 0.375 25.75C0.375 11.7298 11.5495 0.375 25.3208 0.375C39.0921 0.375 50.2667 11.7298 50.2667 25.75Z" stroke="url(#paint5_radial_170_6541)" stroke-opacity="0.8" stroke-width="0.75"/>
</g>
<path d="M38.6687 23.0474C38.998 22.6795 39.3786 22.3612 39.7988 22.1024C38.3368 21.6169 36.9206 21.0021 35.5677 20.2652C34.8151 19.8182 34.0904 19.3261 33.3975 18.7915C33.0105 18.4534 32.5986 18.1447 32.1657 17.8677C32.4384 18.5048 32.8796 18.9981 33.1664 19.6595C33.3364 20.1415 33.456 20.6401 33.5238 21.1468C33.7722 22.3788 34.36 23.5692 34.4233 24.8256C34.4302 24.8256 34.4338 24.8187 34.4407 24.8187C35.8581 24.5233 37.643 24.1706 38.6687 23.0474L38.6687 23.0474ZM36.3758 25.9409C36.7888 25.4997 37.1983 25.0482 37.594 24.5899C36.6761 24.9767 35.7199 25.2654 34.7414 25.4507C34.7184 25.5178 34.6743 25.5756 34.6158 25.6152C34.1186 25.9583 33.867 26.623 33.5974 27.1307C33.3383 27.6171 32.9883 27.9812 32.7051 28.4468C32.2323 29.2341 31.7252 30.0008 31.2104 30.7603C31.5883 30.3718 31.9768 29.9905 32.387 29.6228C33.7302 28.4153 35.1406 27.2671 36.3758 25.9409L36.3758 25.9409ZM38.4409 20.866C37.3944 20.2326 36.397 19.4938 35.3858 18.8291C34.1958 18.0449 33.0057 17.2959 31.8541 16.4666C31.8921 16.6591 31.9062 16.8551 31.8962 17.0509C33.0967 17.2821 34.1642 18.6225 35.1545 19.2281C36.2046 19.8608 37.3037 20.4085 38.441 20.8661L38.4409 20.866ZM33.7232 24.562C33.6005 23.3722 33.0787 22.0666 32.8025 20.9501C32.5083 19.7705 31.7328 18.8992 31.399 17.7677C31.399 17.7715 31.3954 17.7715 31.3954 17.7746C30.7622 18.0827 29.9955 18.0862 29.3233 18.3978C29.0435 18.5272 28.8021 18.6385 28.5607 18.7269C29.4633 19.4489 30.1359 21.0334 30.7937 21.8242L30.7939 21.824C31.2841 22.3464 31.8065 22.8376 32.3581 23.2948C32.7796 23.7518 33.2361 24.1754 33.7232 24.562L33.7232 24.562ZM33.0092 26.7843C33.1695 26.4034 33.3703 26.041 33.6076 25.7026C30.9128 25.9128 28.2738 26.7105 25.5891 26.7143C25.5399 27.5018 25.3192 28.2757 25.3054 29.0522C25.2877 29.9273 25.3336 30.7988 25.3336 31.6701C25.3336 33.3083 25.2985 34.9256 25.4489 36.5459C26.5864 35.4086 27.8254 34.3337 28.774 33.0388C29.5615 31.9604 30.2716 30.837 31.0352 29.7494C31.6684 28.8423 32.5718 27.796 33.0089 26.7843L33.0092 26.7843ZM33.2401 25.052C32.3932 24.4779 31.6408 23.6382 30.93 22.9729C30.371 22.4097 29.8669 21.7944 29.4252 21.1353C29.1526 20.754 28.9038 20.3584 28.6272 19.9806C28.2664 19.1091 28.0449 18.9968 27.9625 19.6444C27.4374 21.3067 26.8353 22.9168 26.2369 24.5548C26.0693 25.0166 25.8942 25.6224 25.5509 26.0319C28.1129 26.0355 30.6676 25.3041 33.2399 25.0531L33.2401 25.052ZM29.8906 17.38C30.4856 17.2195 31.3287 17.3485 31.168 16.5049C31.1413 16.3509 31.1121 16.2002 31.0878 16.0462C30.083 15.4479 29.1556 14.9978 27.9238 14.9978H24.8961C23.7832 14.9978 22.3272 14.6408 21.2983 15.1484C20.7278 15.4605 20.1163 15.6914 19.4819 15.8342C19.5235 16.2881 19.4614 16.7454 19.3 17.1714C19.586 17.2232 19.8637 17.3132 20.1257 17.4388C20.5946 17.6625 21.5924 18.4433 22.1032 18.3241V18.3244C23.1796 18.0801 24.2832 17.9767 25.3861 18.0166C25.9778 18.0242 26.5681 18.071 27.1535 18.1563C28.4382 18.3564 28.8443 17.6635 29.8906 17.38L29.8906 17.38ZM26.4222 22.1937C26.7512 21.2871 26.9124 19.7961 27.4723 18.8931C26.6254 18.8549 25.8061 18.6792 24.9487 18.694C24.1018 18.7296 23.258 18.8184 22.422 18.9597C22.9478 19.8613 23.0414 21.0683 23.3876 22.0275C23.832 23.2458 24.7455 24.2887 25.113 25.4929C25.747 24.7018 26.1987 22.826 26.4222 22.1915L26.4222 22.1937ZM24.9136 26.5812C24.8861 26.5463 24.867 26.5055 24.8579 26.462C24.2276 26.3047 23.5172 26.5461 22.8942 26.5461H20.3568C19.5693 26.5461 18.708 26.6724 17.9277 26.5358C17.5237 26.447 17.1262 26.3309 16.7377 26.1881C17.1815 26.8051 17.5827 27.4517 17.9382 28.1236C18.5684 29.233 19.3874 30.1561 20.1254 31.1859H20.1256C20.1316 31.1919 20.1364 31.1991 20.1397 31.2069C20.2066 31.2631 20.2734 31.3189 20.3358 31.3784C20.4021 31.4383 20.4392 31.524 20.4375 31.6133C21.6727 33.3139 23.0695 35.0992 24.7493 36.3659C24.6199 34.8053 24.655 33.248 24.655 31.669C24.655 30.8046 24.5568 29.9154 24.6237 29.0511C24.686 28.2227 24.8861 27.4212 24.9136 26.5812L24.9136 26.5812ZM24.1087 25.7624C24.2424 25.7554 24.3644 25.7554 24.4869 25.7588C24.2944 25.1437 23.8427 24.5618 23.5382 24.0054C23.2094 23.4343 22.9384 22.8314 22.7297 22.2062C22.5301 21.5587 22.2782 20.9113 22.1275 20.2497C21.9527 19.4694 21.8266 18.8777 21.3192 20.0152C20.2693 22.3495 17.9382 23.5185 16.3002 25.3564C17.0141 25.5209 17.6722 25.8464 18.4315 25.8464L21.3756 25.8461C22.3027 25.8461 23.1883 25.8253 24.1086 25.7621L24.1087 25.7624ZM20.9902 19.2176C21.0915 19.0915 21.1827 18.9654 21.2844 18.8463C20.5984 18.5872 19.9926 18.0554 19.2228 17.8568V17.857C19.1397 18.3441 19.0143 18.8231 18.8484 19.2885C18.473 20.7875 17.9255 22.2378 17.2171 23.611C17.9857 23.042 18.6984 22.4011 19.345 21.6968C19.9961 20.9255 20.3775 19.9838 20.9901 19.2176L20.9902 19.2176ZM18.607 17.0266C18.6842 16.6557 18.7577 16.0884 18.8661 16.008H18.8659C18.5631 16.2462 18.2439 16.4628 17.9105 16.656C16.8621 17.2372 15.8778 17.9275 14.9741 18.7152C14.918 18.7687 14.8547 18.817 14.7955 18.8692C15.4679 18.608 16.1128 18.2809 16.721 17.8926C17.2845 17.5146 17.8336 17.1298 18.5165 17.0318C18.5464 17.0285 18.5767 17.0266 18.6068 17.0266L18.607 17.0266ZM18.4881 17.7999C18.5371 17.6879 17.2245 18.3775 17.0669 18.479C15.737 19.3329 14.0851 19.627 12.7695 20.474H12.7692C12.2274 20.8536 11.6627 21.1996 11.0785 21.51C10.9137 21.5792 10.7439 21.6353 10.5704 21.6778C10.4961 21.7435 10.4259 21.8135 10.3605 21.888C10.343 21.9061 10.323 21.9214 10.3008 21.9333C10.599 22.1795 10.882 22.4438 11.1479 22.7244C11.9739 23.1618 12.9817 23.3614 13.7904 23.7361C14.4989 24.0286 15.1541 24.4366 15.7293 24.9433C15.7092 24.8633 15.7259 24.7786 15.7747 24.7122C16.7071 23.2657 17.4284 21.6936 17.9169 20.0434C18.1412 19.3367 18.1901 18.4684 18.4879 17.7999L18.4881 17.7999ZM17.9036 29.4023C17.7914 29.2342 17.6863 29.0628 17.5887 28.8878C16.9652 27.7913 16.4337 26.6757 15.4779 25.8254H15.4777C15.3967 25.7579 15.3581 25.6526 15.376 25.5487C14.6976 24.7321 13.6821 24.3577 12.6501 24.01C13.3568 24.5384 13.8 25.2772 14.396 25.9212C15.3303 26.9398 16.268 28.0699 17.3329 28.9522C17.5218 29.1084 17.7109 29.2555 17.9036 29.4023H17.9036Z" fill="url(#paint6_linear_170_6541)"/>
<defs>
<filter id="filter0_b_170_6541" x="-3.75" y="-3.75" width="58.1426" height="59" filterUnits="userSpaceOnUse" color-interpolation-filters="sRGB">
<feFlood flood-opacity="0" result="BackgroundImageFix"/>
<feGaussianBlur in="BackgroundImage" stdDeviation="1.875"/>
<feComposite in2="SourceAlpha" operator="in" result="effect1_backgroundBlur_170_6541"/>
<feBlend mode="normal" in="SourceGraphic" in2="effect1_backgroundBlur_170_6541" result="shape"/>
</filter>
<radialGradient id="paint0_radial_170_6541" cx="0" cy="0" r="1" gradientUnits="userSpaceOnUse" gradientTransform="translate(4.2362) rotate(48.4979) scale(76.4232 55.4062)">
<stop stop-color="white" stop-opacity="0.36"/>
<stop offset="1" stop-color="white" stop-opacity="0"/>
</radialGradient>
<radialGradient id="paint1_radial_170_6541" cx="0" cy="0" r="1" gradientUnits="userSpaceOnUse" gradientTransform="translate(4.2362) rotate(48.4979) scale(76.4232 55.4062)">
<stop stop-color="white" stop-opacity="0.36"/>
<stop offset="1" stop-color="white" stop-opacity="0"/>
</radialGradient>
<radialGradient id="paint2_radial_170_6541" cx="0" cy="0" r="1" gradientUnits="userSpaceOnUse" gradientTransform="translate(34.2393 46.1815) rotate(-149.785) scale(38.3054 26.8574)">
<stop stop-color="#9FEBFC" stop-opacity="0.6"/>
<stop offset="1" stop-color="#89E4F9" stop-opacity="0"/>
</radialGradient>
<radialGradient id="paint3_radial_170_6541" cx="0" cy="0" r="1" gradientUnits="userSpaceOnUse" gradientTransform="translate(-13.7805 6.49652) rotate(43.5958) scale(47.7427 23.3391)">
<stop stop-color="#B5FEFE"/>
<stop offset="1" stop-color="#B5FEFE" stop-opacity="0.06"/>
</radialGradient>
<radialGradient id="paint4_radial_170_6541" cx="0" cy="0" r="1" gradientUnits="userSpaceOnUse" gradientTransform="translate(65.4677 34.4669) rotate(161.046) scale(42.3982 29.1012)">
<stop stop-color="#B5FEFE"/>
<stop offset="1" stop-color="#1AEEF9" stop-opacity="0"/>
</radialGradient>
<radialGradient id="paint5_radial_170_6541" cx="0" cy="0" r="1" gradientUnits="userSpaceOnUse" gradientTransform="translate(25.8722 -11.7702) rotate(47.7693) scale(28.5599 20.4932)">
<stop/>
<stop offset="1" stop-color="white" stop-opacity="0"/>
</radialGradient>
<linearGradient id="paint6_linear_170_6541" x1="-67.7526" y1="-33.7845" x2="57.7157" y2="-19.7717" gradientUnits="userSpaceOnUse">
<stop stop-color="#0338D1"/>
<stop offset="0.38297" stop-color="#1CFCFC"/>
<stop offset="0.6239" stop-color="#36FCFC"/>
<stop offset="0.885417" stop-color="#0495E7"/>
</linearGradient>
</defs>
</svg>
