<svg width="43" height="42" viewBox="0 0 43 42" fill="none" xmlns="http://www.w3.org/2000/svg">
<rect x="0.5" width="42" height="42" rx="21" fill="#000936"/>
<path d="M18.3386 19.7719L16.7747 18.2014L21.8673 13.0866L26.9633 18.2031L25.3994 19.7744L21.8673 16.2275L18.3386 19.7719ZM32.1513 23.8129L22.1078 33.8984C22.0764 33.9306 22.0389 33.9561 21.9975 33.9736C21.9562 33.991 21.9117 34 21.8669 34C21.822 34 21.7776 33.991 21.7362 33.9736C21.6948 33.9561 21.6573 33.9306 21.6259 33.8984L11.5824 23.8129C11.5296 23.7598 11.5 23.6879 11.5 23.6128C11.5 23.5378 11.5296 23.4659 11.5824 23.4128L14.1684 20.8211L11.7681 18.4107C11.7359 18.3792 11.7104 18.3415 11.6929 18.2998C11.6755 18.2582 11.6665 18.2135 11.6665 18.1683C11.6665 18.1232 11.6755 18.0785 11.6929 18.0368C11.7104 17.9952 11.7359 17.9575 11.7681 17.9259L21.49 8.1599C21.5396 8.10926 21.5987 8.06905 21.6639 8.04159C21.7291 8.01414 21.7991 8 21.8698 8C21.9405 8 22.0105 8.01414 22.0757 8.04159C22.1409 8.06905 22.2001 8.10926 22.2496 8.1599L32.0121 17.9675C32.0383 17.9938 32.0592 18.025 32.0734 18.0594C32.0876 18.0938 32.0949 18.1307 32.0949 18.1679C32.0949 18.2052 32.0876 18.242 32.0734 18.2764C32.0592 18.3108 32.0383 18.3421 32.0121 18.3684L29.5696 20.8211L32.1513 23.4137C32.2038 23.4667 32.2333 23.5385 32.2333 23.6133C32.2333 23.6881 32.2038 23.7598 32.1513 23.8129ZM15.7289 19.2498L16.3628 19.8888L21.6251 25.1723C21.6565 25.2045 21.694 25.23 21.7354 25.2474C21.7767 25.2649 21.8212 25.2739 21.866 25.2739C21.9109 25.2739 21.9553 25.2649 21.9967 25.2474C22.0381 25.23 22.0756 25.2045 22.107 25.1723L28.8412 18.4099C28.8734 18.3783 28.8989 18.3406 28.9163 18.299C28.9338 18.2574 28.9428 18.2127 28.9428 18.1675C28.9428 18.1223 28.9338 18.0776 28.9163 18.036C28.8989 17.9944 28.8734 17.9567 28.8412 17.9251L22.107 11.1635C22.0756 11.1314 22.0381 11.1058 21.9967 11.0884C21.9553 11.0709 21.9109 11.062 21.866 11.062C21.8212 11.062 21.7767 11.0709 21.7354 11.0884C21.694 11.1058 21.6565 11.1314 21.6251 11.1635L14.8909 17.9251C14.8587 17.9567 14.8332 17.9944 14.8157 18.036C14.7983 18.0776 14.7893 18.1223 14.7893 18.1675C14.7893 18.2127 14.7983 18.2574 14.8157 18.299C14.8332 18.3406 14.8587 18.3783 14.8909 18.4099L15.7289 19.2498ZM28.9796 23.3705L28.0099 22.3916L22.0715 28.3548C22.0454 28.3811 22.0142 28.4021 21.98 28.4163C21.9457 28.4306 21.909 28.4379 21.8719 28.4379C21.8349 28.4379 21.7981 28.4306 21.7639 28.4163C21.7296 28.4021 21.6985 28.3811 21.6723 28.3548L15.7332 22.3916L14.7584 23.3705C14.7262 23.402 14.7007 23.4397 14.6832 23.4814C14.6658 23.523 14.6568 23.5677 14.6568 23.6128C14.6568 23.658 14.6658 23.7027 14.6832 23.7443C14.7007 23.786 14.7262 23.8237 14.7584 23.8552L21.6723 30.7982C21.6985 30.8245 21.7296 30.8455 21.7639 30.8597C21.7981 30.874 21.8349 30.8814 21.8719 30.8814C21.909 30.8814 21.9457 30.874 21.98 30.8597C22.0142 30.8455 22.0454 30.8245 22.0715 30.7982L28.9805 23.8552C29.0126 23.8237 29.0382 23.786 29.0556 23.7443C29.073 23.7027 29.082 23.658 29.082 23.6128C29.082 23.5677 29.073 23.523 29.0556 23.4814C29.0382 23.4397 29.0118 23.402 28.9796 23.3705ZM19.3826 20.8211L20.9473 22.3916L21.8673 21.4669L22.7906 22.3941L24.3554 20.8211L21.8673 18.3226L19.3826 20.8211Z" fill="url(#paint0_linear_315_8705)"/>
<defs>
<linearGradient id="paint0_linear_315_8705" x1="21.8667" y1="3.98165" x2="21.8667" y2="37.883" gradientUnits="userSpaceOnUse">
<stop stop-color="#0338D1"/>
<stop offset="0.354167" stop-color="#1CFCFC"/>
<stop offset="0.885417" stop-color="#0338D1"/>
</linearGradient>
</defs>
</svg>
