<svg width="17" height="17" viewBox="0 0 17 17" fill="none" xmlns="http://www.w3.org/2000/svg">
<path d="M7.66691 2.13338C8.13358 1.74005 8.88691 1.74005 9.34025 2.13338L10.3936 3.03338C10.5936 3.20005 10.9736 3.34005 11.2402 3.34005H12.3736C13.0802 3.34005 13.6602 3.92005 13.6602 4.62671V5.76005C13.6602 6.02671 13.8002 6.40005 13.9669 6.60005L14.8669 7.65338C15.2602 8.12005 15.2602 8.87338 14.8669 9.32671L13.9669 10.38C13.8002 10.58 13.6602 10.9534 13.6602 11.22V12.3534C13.6602 13.06 13.0802 13.64 12.3736 13.64H11.2402C10.9736 13.64 10.6002 13.78 10.4002 13.9467L9.34691 14.8467C8.88025 15.24 8.12691 15.24 7.67358 14.8467L6.62025 13.9467C6.42025 13.78 6.04025 13.64 5.78025 13.64H4.61358C3.90691 13.64 3.32691 13.06 3.32691 12.3534V11.2134C3.32691 10.9534 3.19358 10.5734 3.02691 10.38L2.12691 9.32005C1.74025 8.86005 1.74025 8.11338 2.12691 7.65338L3.02691 6.59338C3.19358 6.39338 3.32691 6.02005 3.32691 5.76005V4.63338C3.32691 3.92671 3.90691 3.34671 4.61358 3.34671H5.76691C6.03358 3.34671 6.40691 3.20671 6.60691 3.04005L7.66691 2.13338Z" stroke="white" stroke-width="1.0625" stroke-linecap="round" stroke-linejoin="round"/>
<path d="M8.5 5.91998V9.13998" stroke="white" stroke-width="1.0625" stroke-linecap="round" stroke-linejoin="round"/>
<path d="M8.49609 11.1667H8.50208" stroke="white" stroke-width="1.41667" stroke-linecap="round" stroke-linejoin="round"/>
</svg>
