<svg width="17" height="16" viewBox="0 0 17 16" fill="none" xmlns="http://www.w3.org/2000/svg">
<path d="M7.27605 1.63289C7.74271 1.23956 8.49605 1.23956 8.94938 1.63289L10.0027 2.53289C10.2027 2.69956 10.5827 2.83956 10.8494 2.83956H11.9827C12.6894 2.83956 13.2694 3.41956 13.2694 4.12622V5.25956C13.2694 5.52622 13.4094 5.89956 13.576 6.09956L14.476 7.15289C14.8694 7.61956 14.8694 8.37289 14.476 8.82622L13.576 9.87956C13.4094 10.0796 13.2694 10.4529 13.2694 10.7196V11.8529C13.2694 12.5596 12.6894 13.1396 11.9827 13.1396H10.8494C10.5827 13.1396 10.2094 13.2796 10.0094 13.4462L8.95605 14.3462C8.48938 14.7396 7.73605 14.7396 7.28271 14.3462L6.22938 13.4462C6.02938 13.2796 5.64938 13.1396 5.38938 13.1396H4.22271C3.51604 13.1396 2.93604 12.5596 2.93604 11.8529V10.7129C2.93604 10.4529 2.80271 10.0729 2.63604 9.87956L1.73604 8.81956C1.34938 8.35956 1.34938 7.61289 1.73604 7.15289L2.63604 6.09289C2.80271 5.89289 2.93604 5.51956 2.93604 5.25956V4.13289C2.93604 3.42622 3.51604 2.84622 4.22271 2.84622H5.37605C5.64271 2.84622 6.01604 2.70622 6.21604 2.53956L7.27605 1.63289Z" stroke="#10A4E9" stroke-width="1.0625" stroke-linecap="round" stroke-linejoin="round"/>
<path d="M8.10938 5.41992V8.63992" stroke="#10A4E9" stroke-width="1.0625" stroke-linecap="round" stroke-linejoin="round"/>
<path d="M8.10571 10.667H8.1117" stroke="#10A4E9" stroke-width="1.41667" stroke-linecap="round" stroke-linejoin="round"/>
</svg>
