<svg width="90" height="90" viewBox="0 0 90 90" fill="none" xmlns="http://www.w3.org/2000/svg">
<ellipse cx="45" cy="45" rx="44.25" ry="45" fill="url(#paint0_linear_137_2823)"/>
<path fill-rule="evenodd" clip-rule="evenodd" d="M47.3169 39.9869L46.1765 41.9813L45.7228 41.7726C45.0895 41.4818 44.311 41.3648 43.7066 41.7881C43.3822 42.0162 43.1263 42.3866 43.101 42.791C43.077 43.1878 43.3413 43.4883 43.6826 43.6549C44.087 43.8527 44.6526 43.8048 45.0933 43.7778C46.0246 43.7223 46.798 43.7139 47.6608 44.1326C48.8673 44.7213 49.6168 45.847 49.5297 47.2093C49.4489 48.4688 48.7381 49.4477 47.6958 50.116L48.0505 51.4891L45.8147 52.0661L45.4502 50.6554C44.5008 50.6037 43.8334 50.2716 43.0115 49.8697L44.1519 47.8754L44.6043 48.0829C45.2377 48.3737 46.0162 48.4907 46.6205 48.066C47.2972 47.5905 47.5375 46.6361 46.6445 46.1992C46.2401 46.0027 45.6732 46.0494 45.2365 46.0772C44.3039 46.1327 43.5304 46.1412 42.6677 45.7212C41.4612 45.1324 40.7117 44.0067 40.7987 42.6444C40.8795 41.3861 41.5903 40.4048 42.6327 39.739L42.2779 38.3658L44.5138 37.788L44.8782 39.1998C45.8293 39.2533 46.4967 39.5836 47.317 39.9868L47.3169 39.9869ZM68.2635 27.5803L57.8083 29.53L55.1033 23L46.8381 28.1716L39.8072 24.1502L35.5985 31.0775L25.8562 30.554L26.6504 37.5764L16.5668 40.9334L22.4033 46.2801L15 52.7176L24.5911 54.7674L22.0695 62.2763L32.5234 60.33L35.2298 66.86L43.4974 61.6871L50.5283 65.7077L54.737 58.7816L64.4805 59.3039L63.6864 52.2802L73.7724 48.9233L67.9301 43.5746L75.3304 37.1388L65.7425 35.091L68.2635 27.5803ZM61.5596 37.4804L68.3792 38.9369L63.1197 43.5101L67.5928 47.6064L60.2059 50.064L60.8645 55.8993L53 55.4768L49.4175 61.3722L43.4253 57.9454L36.7429 62.1264L34.4961 56.7027L26.8449 58.1277L28.7766 52.3796L21.9591 50.923L27.2162 46.351L22.7419 42.2521L30.13 39.7932L29.4702 33.9604L37.336 34.383L40.9172 28.4875L46.9103 31.9144L53.5935 27.7334L55.8416 33.1583L63.4889 31.7321L61.5596 37.4804ZM58.4113 43.4483L61.5835 40.6909L57.4703 39.8127L58.8194 35.7912L53.918 36.7044L52.1152 32.3547L46.9822 35.5664L42.0109 32.7237L39.0403 37.6129L33.0013 37.2897L33.5311 41.9651L28.7913 43.5425L31.9235 46.4117L28.7538 49.1677L32.8671 50.046L31.5158 54.0675L36.4194 53.1542L38.221 57.5027L43.3526 54.2917L48.3227 57.1332L51.2946 52.2439L57.3323 52.5684L56.8037 47.8904L61.5398 46.3144L58.4113 43.4483Z" fill="black"/>
<defs>
<linearGradient id="paint0_linear_137_2823" x1="45" y1="90" x2="45" y2="0" gradientUnits="userSpaceOnUse">
<stop stop-color="#FF6DA4"/>
<stop offset="1" stop-color="#FFA68D"/>
</linearGradient>
</defs>
</svg>
