<svg width="89" height="90" viewBox="0 0 89 90" fill="none" xmlns="http://www.w3.org/2000/svg">
<ellipse cx="44.5" cy="45" rx="44.25" ry="45" fill="url(#paint0_linear_137_2811)"/>
<path d="M67.8251 40.2804C68.4005 39.6374 69.0656 39.0811 69.8 38.6289C67.245 37.7805 64.7701 36.706 62.4058 35.4183C61.0906 34.6372 59.8242 33.7772 58.6132 32.8429C57.9368 32.2521 57.217 31.7125 56.4605 31.2285C56.937 32.3418 57.7082 33.2039 58.2093 34.3597C58.5064 35.2022 58.7155 36.0734 58.834 36.9589C59.2679 39.112 60.2953 41.1922 60.4059 43.3879C60.418 43.3879 60.4242 43.3758 60.4363 43.3758C62.9133 42.8596 66.0325 42.2433 67.8251 40.2804L67.8251 40.2804ZM63.8179 45.337C64.5398 44.5659 65.2554 43.7769 65.9469 42.976C64.3429 43.652 62.6717 44.1565 60.9617 44.4803C60.9216 44.5975 60.8445 44.6985 60.7422 44.7678C59.8735 45.3674 59.4336 46.5291 58.9626 47.4162C58.5098 48.2662 57.8981 48.9026 57.4032 49.7162C56.5769 51.092 55.6907 52.4319 54.791 53.7593C55.4516 53.0804 56.1305 52.4139 56.8474 51.7714C59.1946 49.6612 61.6594 47.6546 63.818 45.337L63.8179 45.337ZM67.4269 36.4683C65.598 35.3613 63.855 34.0702 62.0879 32.9085C60.0082 31.5382 57.9285 30.2292 55.916 28.78C55.9824 29.1163 56.007 29.4589 55.9895 29.8011C58.0876 30.205 59.9531 32.5476 61.6837 33.6058C63.5189 34.7116 65.4396 35.6688 67.4271 36.4683L67.4269 36.4683ZM59.1824 42.9273C58.9679 40.848 58.0561 38.5664 57.5734 36.6151C57.0593 34.5538 55.704 33.0311 55.1206 31.0537C55.1206 31.0604 55.1144 31.0604 55.1144 31.0658C54.0078 31.6041 52.6679 31.6104 51.4933 32.1549C51.0043 32.3811 50.5824 32.5755 50.1605 32.7299C51.7378 33.9917 52.9133 36.7607 54.0628 38.1428L54.0632 38.1424C54.9199 39.0554 55.8329 39.9137 56.7968 40.7128C57.5333 41.5114 58.3311 42.2517 59.1824 42.9272L59.1824 42.9273ZM57.9347 46.8108C58.2147 46.1453 58.5656 45.5119 58.9804 44.9206C54.271 45.2878 49.6592 46.6819 44.9674 46.6886C44.8814 48.0648 44.4959 49.4172 44.4717 50.7742C44.4408 52.3034 44.5209 53.8265 44.5209 55.3492C44.5209 58.2121 44.4596 61.0383 44.7224 63.87C46.7103 61.8825 48.8756 60.004 50.5334 57.741C51.9096 55.8566 53.1505 53.8933 54.485 51.9927C55.5915 50.4074 57.1702 48.579 57.9342 46.8109L57.9347 46.8108ZM58.3382 43.7835C56.8582 42.7803 55.5433 41.3128 54.301 40.1502C53.3242 39.1659 52.4433 38.0906 51.6714 36.9389C51.1949 36.2725 50.7601 35.5811 50.2768 34.9209C49.6463 33.3979 49.2591 33.2017 49.1151 34.3334C48.1975 37.2385 47.1452 40.0522 46.0995 42.9147C45.8066 43.7217 45.5007 44.7803 44.9006 45.4959C49.378 45.5022 53.8424 44.2241 58.3379 43.7855L58.3382 43.7835ZM52.4846 30.3762C53.5245 30.0958 54.9978 30.3211 54.717 28.8469C54.6703 28.5777 54.6194 28.3144 54.5768 28.0453C52.8208 26.9996 51.2002 26.2131 49.0474 26.2131H43.7564C41.8115 26.2131 39.267 25.5893 37.4689 26.4764C36.4721 27.0218 35.4034 27.4253 34.2947 27.6748C34.3673 28.4681 34.2588 29.2671 33.9767 30.0116C34.4766 30.1021 34.9619 30.2594 35.4197 30.4789C36.2392 30.8699 37.983 32.2344 38.8756 32.0261V32.0266C40.7567 31.5997 42.6853 31.419 44.6127 31.4887C45.6467 31.502 46.6783 31.5838 47.7014 31.7328C49.9464 32.0825 50.6561 30.8715 52.4846 30.3762L52.4846 30.3762ZM46.4233 38.7884C46.9983 37.2041 47.2799 34.5985 48.2585 33.0205C46.7785 32.9537 45.3467 32.6466 43.8483 32.6724C42.3683 32.7346 40.8936 32.8898 39.4327 33.1369C40.3515 34.7125 40.5151 36.8218 41.1202 38.4981C41.8967 40.6271 43.4932 42.4497 44.1355 44.554C45.2433 43.1716 46.0328 39.8934 46.4234 38.7847L46.4233 38.7884ZM43.7869 46.4559C43.7389 46.3949 43.7055 46.3236 43.6897 46.2476C42.5881 45.9727 41.3466 46.3945 40.258 46.3945H35.8236C34.4474 46.3945 32.9422 46.6153 31.5787 46.3766C30.8726 46.2214 30.1779 46.0186 29.4989 45.769C30.2746 46.8473 30.9756 47.9773 31.597 49.1515C32.6983 51.0901 34.1295 52.7033 35.4193 54.5031H35.4197C35.4301 54.5135 35.4384 54.526 35.4443 54.5398C35.5611 54.6378 35.678 54.7355 35.7869 54.8394C35.9029 54.9441 35.9676 55.0939 35.9646 55.25C38.1232 58.2218 40.5643 61.3418 43.4998 63.5555C43.2736 60.8282 43.335 58.1066 43.335 55.3472C43.335 53.8366 43.1635 52.2827 43.2803 50.7722C43.3892 49.3246 43.7389 47.9239 43.7869 46.4559L43.7869 46.4559ZM42.3803 45.025C42.6139 45.0129 42.8272 45.0129 43.0412 45.0187C42.7049 43.9439 41.9154 42.9269 41.3833 41.9546C40.8088 40.9565 40.3351 39.9029 39.9704 38.8104C39.6216 37.6787 39.1813 36.5475 38.918 35.3912C38.6126 34.0275 38.3923 32.9936 37.5055 34.9814C35.6707 39.0608 31.5969 41.1037 28.7344 44.3155C29.9821 44.603 31.132 45.1718 32.459 45.1718L37.604 45.1713C39.2243 45.1713 40.7719 45.135 42.3801 45.0245L42.3803 45.025ZM36.9306 33.5875C37.1075 33.3671 37.2669 33.1468 37.4447 32.9386C36.2458 32.4859 35.1872 31.5565 33.8419 31.2094V31.2098C33.6967 32.061 33.4776 32.8981 33.1876 33.7113C32.5316 36.331 31.5748 38.8655 30.3367 41.2653C31.6799 40.2709 32.9254 39.151 34.0554 37.9201C35.1933 36.5723 35.8598 34.9266 36.9304 33.5874L36.9306 33.5875ZM32.7658 29.7585C32.9006 29.1105 33.0291 28.119 33.2185 27.9784H33.2181C32.689 28.3949 32.1311 28.7733 31.5486 29.111C29.7164 30.1266 27.9963 31.333 26.4169 32.7096C26.3189 32.8031 26.2083 32.8874 26.1048 32.9787C27.2799 32.5222 28.4069 31.9506 29.4697 31.272C30.4545 30.6115 31.4142 29.9389 32.6076 29.7678C32.6598 29.7619 32.7128 29.7586 32.7654 29.7586L32.7658 29.7585ZM32.558 31.11C32.6435 30.9143 30.3498 32.1194 30.0744 32.2967C27.7501 33.7889 24.8635 34.303 22.5642 35.7831H22.5638C21.617 36.4466 20.6301 37.0512 19.6091 37.5936C19.3211 37.7146 19.0245 37.8127 18.7211 37.887C18.5913 38.0017 18.4687 38.124 18.3543 38.2542C18.3239 38.2859 18.2888 38.3126 18.25 38.3335C18.7712 38.7637 19.2656 39.2256 19.7305 39.7159C21.1738 40.4803 22.9351 40.8292 24.3484 41.4839C25.5865 41.995 26.7315 42.7082 27.7367 43.5936C27.7017 43.4538 27.7309 43.3057 27.816 43.1897C29.4455 40.6619 30.7061 37.9145 31.5598 35.0307C31.9516 33.7956 32.0372 32.2783 32.5575 31.11L32.558 31.11ZM31.5365 51.386C31.3404 51.0923 31.1568 50.7927 30.9861 50.4868C29.8966 48.5706 28.9677 46.6211 27.2974 45.1352H27.297C27.1556 45.0171 27.088 44.8331 27.1192 44.6516C25.9337 43.2245 24.1591 42.5703 22.3556 41.9627C23.5907 42.8861 24.3651 44.1771 25.4067 45.3026C27.0394 47.0827 28.6781 49.0576 30.5392 50.5995C30.8692 50.8724 31.1997 51.1294 31.5365 51.386H31.5365Z" fill="#0E0E18"/>
<defs>
<linearGradient id="paint0_linear_137_2811" x1="44.5" y1="90" x2="44.5" y2="0" gradientUnits="userSpaceOnUse">
<stop stop-color="#00B59C"/>
<stop offset="1" stop-color="#9CFFAC"/>
</linearGradient>
</defs>
</svg>
