<svg width="90" height="90" viewBox="0 0 90 90" fill="none" xmlns="http://www.w3.org/2000/svg">
<ellipse cx="45" cy="45" rx="44.25" ry="45" fill="url(#paint0_linear_137_2848)"/>
<path d="M62.4131 62.7643V47.3478C63.2642 46.9694 63.8319 46.1655 63.8319 45.1723C63.8319 44.179 63.2645 43.3752 62.4131 42.9968V27.4857C63.1698 26.9183 63.69 26.0198 63.69 25.0266C63.69 23.3712 62.3188 22 60.6635 22H29.1684C27.5131 22 26.1419 23.3712 26.1419 25.0266C26.1419 26.0669 26.6621 26.9655 27.4188 27.4857V42.9968C26.5677 43.3751 26 44.179 26 45.1723C26 46.1655 26.5674 46.9694 27.4188 47.3478V62.7643C26.6621 63.3317 26.1419 64.2302 26.1419 65.2234C26.1419 66.8788 27.5131 68.25 29.1684 68.25H60.6162C62.2715 68.25 63.6427 66.8788 63.6427 65.2234C63.6902 64.2302 63.17 63.332 62.4133 62.7643H62.4131ZM49.834 45.1725C53.6173 42.8552 58.6299 38.7882 58.6299 33.4919C58.6299 31.3639 58.2987 29.5668 57.6367 28.1008H60.5213V43.0444C59.6703 43.4228 59.1026 44.2267 59.1026 45.2199C59.1026 46.2132 59.6699 47.017 60.5213 47.3954L60.5217 62.1972H57.6841C58.299 60.7313 58.6298 58.9816 58.6298 56.9008C58.6298 51.5569 53.6646 47.4901 49.8339 45.1729L49.834 45.1725ZM32.1476 62.1968H29.31V47.3478C30.1611 46.9694 30.7288 46.1655 30.7288 45.1723C30.7288 44.179 30.1614 43.3752 29.31 42.9968V28.1005H32.1476C31.5327 29.5664 31.2019 31.3636 31.2019 33.4915C31.2019 38.8354 36.1674 42.9022 39.9978 45.1721C36.1674 47.4894 31.2019 51.5564 31.2019 56.9C31.2019 58.9809 31.5327 60.7307 32.1476 62.1967V62.1968ZM42.3149 46.0237L43.8284 45.1726L42.3149 44.3216C38.8628 42.4773 33.0934 38.5522 33.0934 33.4922C33.0934 31.2224 33.4718 29.4724 34.3228 28.1012H55.556C56.3599 29.4724 56.7854 31.2224 56.7854 33.4922C56.7854 38.5524 51.0161 42.4773 47.5639 44.3689L46.0034 45.1728L47.5168 46.0238C50.9689 47.9152 56.7383 51.8404 56.7383 56.9005C56.7383 59.1231 56.36 60.8727 55.6033 62.1969H34.2756C33.5188 60.8256 33.0933 59.1232 33.0933 56.9005C33.0933 51.7928 38.8627 47.9146 42.3148 46.0238L42.3149 46.0237Z" fill="black"/>
<path d="M44.917 43.5646L45.2953 43.3756C45.4844 43.2809 49.8825 41.3423 52.5307 37.9375L53.7129 36.424H36.1211L37.3033 37.9375C39.9515 41.3423 44.3496 43.2813 44.5387 43.3756L44.917 43.5646Z" fill="black"/>
<path d="M35.5999 60.3053H54.1848L54.3266 59.5014C54.4213 58.934 54.4685 58.3192 54.4685 57.7043C54.4685 55.9072 53.6174 54.1576 51.915 52.5498L51.6785 52.2661H38.1536L37.8699 52.5498C36.1675 54.2051 35.3164 55.9547 35.3164 57.7043C35.3164 58.3192 35.3636 58.9338 35.4583 59.5014L35.5999 60.3053Z" fill="black"/>
<defs>
<linearGradient id="paint0_linear_137_2848" x1="45.0019" y1="101.675" x2="45.0019" y2="0.0167357" gradientUnits="userSpaceOnUse">
<stop stop-color="#1C66F8"/>
<stop offset="1" stop-color="#91E0FF"/>
</linearGradient>
</defs>
</svg>
