<svg width="90" height="90" viewBox="0 0 90 90" fill="none" xmlns="http://www.w3.org/2000/svg">
<ellipse cx="45" cy="45" rx="44.25" ry="45" fill="url(#paint0_linear_137_2835)"/>
<path fill-rule="evenodd" clip-rule="evenodd" d="M56.4099 34.4027C56.4099 40.6998 51.3049 45.8054 45.0072 45.8054C38.7094 45.8054 33.6045 40.7001 33.6045 34.4027C33.6045 28.1052 38.7094 23 45.0072 23C51.3049 23 56.4099 28.1049 56.4099 34.4027Z" fill="black"/>
<path fill-rule="evenodd" clip-rule="evenodd" d="M52.9481 44.6486C50.7536 46.3523 47.9985 47.3668 45.0083 47.3668C42.0195 47.3668 39.2661 46.3534 37.072 44.6515C29.8847 47.4013 24.4778 53.771 23.0686 61.5187C23.0675 61.5254 23.0665 61.5316 23.0655 61.5383C22.8359 62.8973 23.2167 64.2881 24.1068 65.341C24.9963 66.3935 26.3049 67.0007 27.6834 67L62.3535 66.96C63.7118 66.96 65.0089 66.3583 65.8911 65.3149C66.7732 64.2711 67.1509 62.8922 66.9233 61.5447C66.9223 61.5408 66.9219 61.5363 66.9209 61.5318C65.5434 53.7728 60.1398 47.3981 52.9487 44.6485L52.9481 44.6486Z" fill="black"/>
<defs>
<linearGradient id="paint0_linear_137_2835" x1="45.0019" y1="101.675" x2="45.0019" y2="0.0167357" gradientUnits="userSpaceOnUse">
<stop stop-color="#AE5DFF"/>
<stop offset="1" stop-color="#FFABF2"/>
</linearGradient>
</defs>
</svg>
