<svg width="72" height="31" viewBox="0 0 72 31" fill="none" xmlns="http://www.w3.org/2000/svg">
<rect width="72" height="31" rx="15" fill="url(#paint0_linear_1585_6701)"/>
<path d="M18.796 16.132C19.308 16.252 19.712 16.5 20.008 16.876C20.312 17.252 20.464 17.688 20.464 18.184C20.464 18.912 20.22 19.48 19.732 19.888C19.252 20.296 18.56 20.5 17.656 20.5H13.708V12.016H17.56C18.424 12.016 19.092 12.204 19.564 12.58C20.036 12.956 20.272 13.492 20.272 14.188C20.272 14.7 20.136 15.128 19.864 15.472C19.592 15.808 19.236 16.028 18.796 16.132ZM15.76 15.484H17.104C17.816 15.484 18.172 15.18 18.172 14.572C18.172 13.964 17.808 13.66 17.08 13.66H15.76V15.484ZM17.224 18.832C17.984 18.832 18.364 18.52 18.364 17.896C18.364 17.592 18.264 17.356 18.064 17.188C17.864 17.012 17.58 16.924 17.212 16.924H15.76V18.832H17.224ZM28.2078 13.804V20.5H26.1438V19.288C25.9518 19.68 25.6638 19.992 25.2798 20.224C24.9038 20.456 24.4638 20.572 23.9598 20.572C23.1918 20.572 22.5798 20.316 22.1238 19.804C21.6758 19.292 21.4518 18.588 21.4518 17.692V13.804H23.4918V17.44C23.4918 17.896 23.6078 18.252 23.8398 18.508C24.0798 18.756 24.3998 18.88 24.7998 18.88C25.2158 18.88 25.5438 18.748 25.7838 18.484C26.0238 18.22 26.1438 17.844 26.1438 17.356V13.804H28.2078ZM31.1701 13.804L32.7781 17.908L34.2781 13.804H36.5461L32.3701 23.692H30.1141L31.6861 20.248L28.8781 13.804H31.1701Z" fill="#141416"/>
<rect x="39" y="6.5" width="20" height="20" rx="10" fill="#000936"/>
<path d="M47.4947 15.9152L46.75 15.1674L49.1751 12.7317L51.6018 15.1682L50.857 15.9164L49.1751 14.2274L47.4947 15.9152ZM54.0722 17.8395L49.2896 22.6422C49.2747 22.6575 49.2568 22.6696 49.2371 22.6779C49.2174 22.6862 49.1963 22.6905 49.1749 22.6905C49.1535 22.6905 49.1324 22.6862 49.1127 22.6779C49.093 22.6696 49.0751 22.6575 49.0601 22.6422L44.2775 17.8395C44.2524 17.8142 44.2383 17.78 44.2383 17.7443C44.2383 17.7085 44.2524 17.6743 44.2775 17.649L45.509 16.4149L44.3659 15.2671C44.3506 15.252 44.3385 15.2341 44.3302 15.2143C44.3219 15.1944 44.3176 15.1731 44.3176 15.1516C44.3176 15.1301 44.3219 15.1088 44.3302 15.089C44.3385 15.0692 44.3506 15.0512 44.3659 15.0362L48.9954 10.3857C49.019 10.3616 49.0472 10.3424 49.0782 10.3294C49.1093 10.3163 49.1426 10.3096 49.1763 10.3096C49.21 10.3096 49.2433 10.3163 49.2743 10.3294C49.3054 10.3424 49.3335 10.3616 49.3571 10.3857L54.0059 15.056C54.0184 15.0685 54.0284 15.0834 54.0351 15.0998C54.0419 15.1161 54.0454 15.1337 54.0454 15.1514C54.0454 15.1692 54.0419 15.1867 54.0351 15.2031C54.0284 15.2195 54.0184 15.2344 54.0059 15.2469L52.8428 16.4149L54.0722 17.6494C54.0973 17.6747 54.1113 17.7088 54.1113 17.7445C54.1113 17.7801 54.0973 17.8142 54.0722 17.8395ZM46.2521 15.6666L46.5539 15.9709L49.0597 18.4869C49.0747 18.5022 49.0926 18.5143 49.1123 18.5226C49.132 18.5309 49.1531 18.5352 49.1745 18.5352C49.1959 18.5352 49.217 18.5309 49.2367 18.5226C49.2564 18.5143 49.2743 18.5022 49.2892 18.4869L52.496 15.2667C52.5113 15.2516 52.5235 15.2337 52.5318 15.2138C52.5401 15.194 52.5444 15.1727 52.5444 15.1512C52.5444 15.1297 52.5401 15.1084 52.5318 15.0886C52.5235 15.0688 52.5113 15.0508 52.496 15.0358L49.2892 11.816C49.2743 11.8007 49.2564 11.7885 49.2367 11.7802C49.217 11.7719 49.1959 11.7676 49.1745 11.7676C49.1531 11.7676 49.132 11.7719 49.1123 11.7802C49.0926 11.7885 49.0747 11.8007 49.0597 11.816L45.853 15.0358C45.8377 15.0508 45.8255 15.0688 45.8172 15.0886C45.8089 15.1084 45.8046 15.1297 45.8046 15.1512C45.8046 15.1727 45.8089 15.194 45.8172 15.2138C45.8255 15.2337 45.8377 15.2516 45.853 15.2667L46.2521 15.6666ZM52.5619 17.6288L52.1001 17.1627L49.2723 20.0023C49.2599 20.0149 49.2451 20.0248 49.2288 20.0316C49.2124 20.0384 49.195 20.0419 49.1773 20.0419C49.1596 20.0419 49.1422 20.0384 49.1258 20.0316C49.1095 20.0248 49.0947 20.0149 49.0822 20.0023L46.2541 17.1627L45.7899 17.6288C45.7746 17.6439 45.7624 17.6618 45.7541 17.6816C45.7458 17.7015 45.7415 17.7228 45.7415 17.7443C45.7415 17.7658 45.7458 17.7871 45.7541 17.8069C45.7624 17.8267 45.7746 17.8447 45.7899 17.8597L49.0822 21.1658C49.0947 21.1784 49.1095 21.1884 49.1258 21.1952C49.1422 21.202 49.1596 21.2055 49.1773 21.2055C49.195 21.2055 49.2124 21.202 49.2288 21.1952C49.2451 21.1884 49.2599 21.1784 49.2723 21.1658L52.5623 17.8597C52.5776 17.8447 52.5898 17.8267 52.5981 17.8069C52.6064 17.7871 52.6107 17.7658 52.6107 17.7443C52.6107 17.7228 52.6064 17.7015 52.5981 17.6816C52.5898 17.6618 52.5772 17.6439 52.5619 17.6288ZM47.9919 16.4149L48.737 17.1627L49.1751 16.7224L49.6148 17.1639L50.3599 16.4149L49.1751 15.2251L47.9919 16.4149Z" fill="url(#paint1_linear_1585_6701)"/>
<defs>
<linearGradient id="paint0_linear_1585_6701" x1="-190.516" y1="-69.6109" x2="108.687" y2="-12.5951" gradientUnits="userSpaceOnUse">
<stop stop-color="#0338D1"/>
<stop offset="0.38297" stop-color="#1CFCFC"/>
<stop offset="0.6239" stop-color="#36FCFC"/>
<stop offset="0.885417" stop-color="#0495E7"/>
</linearGradient>
<linearGradient id="paint1_linear_1585_6701" x1="49.1748" y1="8.39607" x2="49.1748" y2="24.5396" gradientUnits="userSpaceOnUse">
<stop stop-color="#0338D1"/>
<stop offset="0.354167" stop-color="#1CFCFC"/>
<stop offset="0.885417" stop-color="#0338D1"/>
</linearGradient>
</defs>
</svg>
