<svg width="21" height="40" viewBox="0 0 21 40" fill="none" xmlns="http://www.w3.org/2000/svg">
<path fill-rule="evenodd" clip-rule="evenodd" d="M12.3106 38.478C11.8899 38.8076 11.4419 39.1006 10.9715 39.3539C10.5511 39.5832 10.0995 39.5789 9.71388 39.2396C9.39483 38.9488 9.38294 38.3166 9.74328 37.8816C10.2256 37.2952 10.7237 36.7082 11.2916 36.2126C13.0042 34.7125 14.7575 33.2429 16.5097 31.7859C17.0909 31.3073 17.708 30.8575 18.3352 30.4265C18.5568 30.2813 18.8126 30.162 19.0622 30.1269C19.7493 30.0189 20.2145 30.5776 19.9629 31.212C19.8041 31.5757 19.573 31.9025 19.2836 32.1727C18.4099 33.0857 13.7625 37.294 12.3123 38.4811L12.3106 38.478ZM16.2369 21.1307L16.6691 20.8789C16.9932 20.5687 16.931 20.3075 16.8702 20.0416L16.8479 19.9567C16.7451 19.5035 16.3199 19.3636 15.8787 19.4224C15.4875 19.47 15.0877 19.5386 14.6967 19.6306L13.9285 19.8031C13.0052 20.0075 12.0788 20.2137 11.1658 20.4369C8.03926 21.2126 4.92495 22.018 1.80477 22.8347C1.33448 22.9579 0.864472 23.1698 0.470948 23.441C0.259969 23.5763 0.0470659 23.9875 0.104651 24.2107C0.187253 24.5092 0.496393 24.8701 0.764344 24.9422C1.26671 25.0764 1.83371 25.0864 2.35823 25.0186C6.85946 24.447 11.2674 23.5058 15.4054 21.5843C15.6814 21.458 15.9453 21.3019 16.2369 21.1307ZM15.703 2.40077L15.3721 1.92647C15.2509 1.81469 15.1442 1.70721 15.0408 1.60595C14.8635 1.42784 14.7056 1.26337 14.5276 1.15028C13.7947 0.689085 13.0293 1.1389 13.0847 1.99789C13.1135 2.35553 13.2208 2.70284 13.3988 3.0149C14.9087 5.76842 16.4392 8.52285 17.9834 11.2657C18.2204 11.6781 18.5715 12.0646 18.9147 12.4069C19.4143 12.9185 19.9224 12.997 20.3567 12.7197C20.7958 12.4438 20.9779 11.9686 20.7859 11.2932C20.6447 10.7842 20.4493 10.2643 20.1821 9.80375C18.9346 7.67103 17.6623 5.5518 16.3946 3.42608C16.1786 3.06692 15.9318 2.72463 15.703 2.40077Z" fill="white"/>
</svg>
