<svg width="25" height="24" viewBox="0 0 25 24" fill="none" xmlns="http://www.w3.org/2000/svg">
<path d="M8.50195 14.25C8.50195 16.17 10.082 17.75 12.002 17.75C13.922 17.75 15.502 16.17 15.502 14.25" stroke="white" stroke-width="1.5" stroke-miterlimit="10" stroke-linecap="round" stroke-linejoin="round"/>
<path d="M8.81141 2L5.19141 5.63" stroke="white" stroke-width="1.5" stroke-miterlimit="10" stroke-linecap="round" stroke-linejoin="round"/>
<path d="M15.1914 2L18.8114 5.63" stroke="white" stroke-width="1.5" stroke-miterlimit="10" stroke-linecap="round" stroke-linejoin="round"/>
<path d="M2.00195 7.84998C2.00195 5.99998 2.99195 5.84998 4.22195 5.84998H19.782C21.012 5.84998 22.002 5.99998 22.002 7.84998C22.002 9.99998 21.012 9.84998 19.782 9.84998H4.22195C2.99195 9.84998 2.00195 9.99998 2.00195 7.84998Z" stroke="white" stroke-width="1.5"/>
<path d="M3.50195 10L4.91195 18.64C5.23195 20.58 6.00195 22 8.86195 22H14.892C18.002 22 18.462 20.64 18.822 18.76L20.502 10" stroke="white" stroke-width="1.5" stroke-linecap="round"/>
</svg>
