<svg width="17" height="16" viewBox="0 0 17 16" fill="none" xmlns="http://www.w3.org/2000/svg">
<path d="M12.9582 3.72H12.6915L10.4382 1.46667C10.2582 1.28667 9.96484 1.28667 9.77818 1.46667C9.59818 1.64667 9.59818 1.94 9.77818 2.12667L11.3715 3.72H4.89151L6.48484 2.12667C6.66484 1.94667 6.66484 1.65333 6.48484 1.46667C6.30484 1.28667 6.01151 1.28667 5.82484 1.46667L3.57818 3.72H3.31151C2.71151 3.72 1.46484 3.72 1.46484 5.42667C1.46484 6.07333 1.59818 6.5 1.87818 6.78C2.03818 6.94666 2.23151 7.03333 2.43818 7.08C2.63151 7.12666 2.83818 7.13333 3.03818 7.13333H13.2248C13.4315 7.13333 13.6248 7.12 13.8115 7.08C14.3715 6.94666 14.7982 6.54667 14.7982 5.42667C14.7982 3.72 13.5515 3.72 12.9582 3.72Z" fill="url(#paint0_linear_1279_511)"/>
<path d="M12.8313 8H3.37795C2.96462 8 2.65129 8.36667 2.71796 8.77333L3.27795 12.2C3.46462 13.3467 3.96462 14.6667 6.18462 14.6667H9.92462C12.1713 14.6667 12.5713 13.54 12.8113 12.28L13.4846 8.79333C13.5646 8.38 13.2513 8 12.8313 8ZM8.13129 13C6.57129 13 5.29796 11.7267 5.29796 10.1667C5.29796 9.89333 5.52462 9.66667 5.79796 9.66667C6.07129 9.66667 6.29796 9.89333 6.29796 10.1667C6.29796 11.18 7.11796 12 8.13129 12C9.14462 12 9.96462 11.18 9.96462 10.1667C9.96462 9.89333 10.1913 9.66667 10.4646 9.66667C10.738 9.66667 10.9646 9.89333 10.9646 10.1667C10.9646 11.7267 9.69129 13 8.13129 13Z" fill="url(#paint1_linear_1279_511)"/>
<defs>
<linearGradient id="paint0_linear_1279_511" x1="-33.8159" y1="-11.6961" x2="21.6327" y2="-1.2408" gradientUnits="userSpaceOnUse">
<stop stop-color="#0338D1"/>
<stop offset="0.38297" stop-color="#1CFCFC"/>
<stop offset="0.6239" stop-color="#36FCFC"/>
<stop offset="0.885417" stop-color="#0495E7"/>
</linearGradient>
<linearGradient id="paint1_linear_1279_511" x1="-25.8371" y1="-6.9701" x2="19.8173" y2="-0.908597" gradientUnits="userSpaceOnUse">
<stop stop-color="#0338D1"/>
<stop offset="0.38297" stop-color="#1CFCFC"/>
<stop offset="0.6239" stop-color="#36FCFC"/>
<stop offset="0.885417" stop-color="#0495E7"/>
</linearGradient>
</defs>
</svg>
