<svg width="42" height="42" viewBox="0 0 42 42" fill="none" xmlns="http://www.w3.org/2000/svg">
<rect width="42" height="42" rx="21" fill="#000936"/>
<path d="M17.8386 19.7719L16.2747 18.2014L21.3673 13.0866L26.4633 18.2031L24.8994 19.7744L21.3673 16.2275L17.8386 19.7719ZM31.6513 23.8129L21.6078 33.8984C21.5764 33.9306 21.5389 33.9561 21.4975 33.9736C21.4562 33.991 21.4117 34 21.3669 34C21.322 34 21.2776 33.991 21.2362 33.9736C21.1948 33.9561 21.1573 33.9306 21.1259 33.8984L11.0824 23.8129C11.0296 23.7598 11 23.6879 11 23.6128C11 23.5378 11.0296 23.4659 11.0824 23.4128L13.6684 20.8211L11.2681 18.4107C11.2359 18.3792 11.2104 18.3415 11.1929 18.2998C11.1755 18.2582 11.1665 18.2135 11.1665 18.1683C11.1665 18.1232 11.1755 18.0785 11.1929 18.0368C11.2104 17.9952 11.2359 17.9575 11.2681 17.9259L20.99 8.1599C21.0396 8.10926 21.0987 8.06905 21.1639 8.04159C21.2291 8.01414 21.2991 8 21.3698 8C21.4405 8 21.5105 8.01414 21.5757 8.04159C21.6409 8.06905 21.7001 8.10926 21.7496 8.1599L31.5121 17.9675C31.5383 17.9938 31.5592 18.025 31.5734 18.0594C31.5876 18.0938 31.5949 18.1307 31.5949 18.1679C31.5949 18.2052 31.5876 18.242 31.5734 18.2764C31.5592 18.3108 31.5383 18.3421 31.5121 18.3684L29.0696 20.8211L31.6513 23.4137C31.7038 23.4667 31.7333 23.5385 31.7333 23.6133C31.7333 23.6881 31.7038 23.7598 31.6513 23.8129ZM15.2289 19.2498L15.8628 19.8888L21.1251 25.1723C21.1565 25.2045 21.194 25.23 21.2354 25.2474C21.2767 25.2649 21.3212 25.2739 21.366 25.2739C21.4109 25.2739 21.4553 25.2649 21.4967 25.2474C21.5381 25.23 21.5756 25.2045 21.607 25.1723L28.3412 18.4099C28.3734 18.3783 28.3989 18.3406 28.4163 18.299C28.4338 18.2574 28.4428 18.2127 28.4428 18.1675C28.4428 18.1223 28.4338 18.0776 28.4163 18.036C28.3989 17.9944 28.3734 17.9567 28.3412 17.9251L21.607 11.1635C21.5756 11.1314 21.5381 11.1058 21.4967 11.0884C21.4553 11.0709 21.4109 11.062 21.366 11.062C21.3212 11.062 21.2767 11.0709 21.2354 11.0884C21.194 11.1058 21.1565 11.1314 21.1251 11.1635L14.3909 17.9251C14.3587 17.9567 14.3332 17.9944 14.3157 18.036C14.2983 18.0776 14.2893 18.1223 14.2893 18.1675C14.2893 18.2127 14.2983 18.2574 14.3157 18.299C14.3332 18.3406 14.3587 18.3783 14.3909 18.4099L15.2289 19.2498ZM28.4796 23.3705L27.5099 22.3916L21.5715 28.3548C21.5454 28.3811 21.5142 28.4021 21.48 28.4163C21.4457 28.4306 21.409 28.4379 21.3719 28.4379C21.3349 28.4379 21.2981 28.4306 21.2639 28.4163C21.2296 28.4021 21.1985 28.3811 21.1723 28.3548L15.2332 22.3916L14.2584 23.3705C14.2262 23.402 14.2007 23.4397 14.1832 23.4814C14.1658 23.523 14.1568 23.5677 14.1568 23.6128C14.1568 23.658 14.1658 23.7027 14.1832 23.7443C14.2007 23.786 14.2262 23.8237 14.2584 23.8552L21.1723 30.7982C21.1985 30.8245 21.2296 30.8455 21.2639 30.8597C21.2981 30.874 21.3349 30.8814 21.3719 30.8814C21.409 30.8814 21.4457 30.874 21.48 30.8597C21.5142 30.8455 21.5454 30.8245 21.5715 30.7982L28.4805 23.8552C28.5126 23.8237 28.5382 23.786 28.5556 23.7443C28.573 23.7027 28.582 23.658 28.582 23.6128C28.582 23.5677 28.573 23.523 28.5556 23.4814C28.5382 23.4397 28.5118 23.402 28.4796 23.3705ZM18.8826 20.8211L20.4473 22.3916L21.3673 21.4669L22.2906 22.3941L23.8554 20.8211L21.3673 18.3226L18.8826 20.8211Z" fill="url(#paint0_linear_314_6291)"/>
<defs>
<linearGradient id="paint0_linear_314_6291" x1="21.3667" y1="3.98165" x2="21.3667" y2="37.883" gradientUnits="userSpaceOnUse">
<stop stop-color="#0338D1"/>
<stop offset="0.354167" stop-color="#1CFCFC"/>
<stop offset="0.885417" stop-color="#0338D1"/>
</linearGradient>
</defs>
</svg>
