<svg width="17" height="16" viewBox="0 0 17 16" fill="none" xmlns="http://www.w3.org/2000/svg">
<path d="M15.5373 5.51337L15.344 3.66671C15.064 1.65337 14.1506 0.833374 12.1973 0.833374H10.624H9.63729H7.61063H6.62396H5.02396C3.06396 0.833374 2.15729 1.65337 1.87063 3.68671L1.69063 5.52004C1.62396 6.23337 1.81729 6.92671 2.23729 7.46671C2.74396 8.12671 3.52396 8.50004 4.39063 8.50004C5.23063 8.50004 6.03729 8.08004 6.54396 7.40671C6.99729 8.08004 7.77063 8.50004 8.63063 8.50004C9.49063 8.50004 10.244 8.10004 10.704 7.43337C11.2173 8.09337 12.0106 8.50004 12.8373 8.50004C13.724 8.50004 14.524 8.10671 15.024 7.41337C15.424 6.88004 15.604 6.20671 15.5373 5.51337Z" fill="url(#paint0_linear_1279_804)"/>
<path d="M8.1976 11.1066C7.35094 11.1933 6.71094 11.9133 6.71094 12.7666V14.5933C6.71094 14.7733 6.8576 14.92 7.0376 14.92H10.2176C10.3976 14.92 10.5443 14.7733 10.5443 14.5933V13C10.5509 11.6066 9.73094 10.9466 8.1976 11.1066Z" fill="url(#paint1_linear_1279_804)"/>
<path d="M14.8781 9.60005V11.5867C14.8781 13.4267 13.3848 14.9201 11.5448 14.9201C11.3648 14.9201 11.2181 14.7734 11.2181 14.5934V13.0001C11.2181 12.1467 10.9581 11.4801 10.4514 11.0267C10.0048 10.6201 9.3981 10.4201 8.64477 10.4201C8.4781 10.4201 8.31143 10.4267 8.13143 10.4467C6.94477 10.5667 6.04477 11.5667 6.04477 12.7667V14.5934C6.04477 14.7734 5.8981 14.9201 5.7181 14.9201C3.8781 14.9201 2.38477 13.4267 2.38477 11.5867V9.61339C2.38477 9.14672 2.84477 8.83339 3.2781 8.98672C3.4581 9.04672 3.6381 9.09339 3.82477 9.12005C3.90477 9.13339 3.99143 9.14672 4.07143 9.14672C4.1781 9.16005 4.28477 9.16672 4.39143 9.16672C5.16477 9.16672 5.92477 8.88005 6.52477 8.38672C7.0981 8.88005 7.84477 9.16672 8.63143 9.16672C9.42477 9.16672 10.1581 8.89339 10.7314 8.40005C11.3314 8.88672 12.0781 9.16672 12.8381 9.16672C12.9581 9.16672 13.0781 9.16005 13.1914 9.14672C13.2714 9.14005 13.3448 9.13339 13.4181 9.12005C13.6248 9.09339 13.8114 9.03339 13.9981 8.97339C14.4314 8.82672 14.8781 9.14672 14.8781 9.60005Z" fill="url(#paint2_linear_1279_804)"/>
<defs>
<linearGradient id="paint0_linear_1279_804" x1="-35.0313" y1="-16.3822" x2="23.4248" y2="-7.70349" gradientUnits="userSpaceOnUse">
<stop stop-color="#0338D1"/>
<stop offset="0.38297" stop-color="#1CFCFC"/>
<stop offset="0.6239" stop-color="#36FCFC"/>
<stop offset="0.885417" stop-color="#0495E7"/>
</linearGradient>
<linearGradient id="paint1_linear_1279_804" x1="-3.43237" y1="2.46748" x2="12.9659" y2="3.81168" gradientUnits="userSpaceOnUse">
<stop stop-color="#0338D1"/>
<stop offset="0.38297" stop-color="#1CFCFC"/>
<stop offset="0.6239" stop-color="#36FCFC"/>
<stop offset="0.885417" stop-color="#0495E7"/>
</linearGradient>
<linearGradient id="paint2_linear_1279_804" x1="-30.6733" y1="-6.28397" x2="21.8367" y2="1.95445" gradientUnits="userSpaceOnUse">
<stop stop-color="#0338D1"/>
<stop offset="0.38297" stop-color="#1CFCFC"/>
<stop offset="0.6239" stop-color="#36FCFC"/>
<stop offset="0.885417" stop-color="#0495E7"/>
</linearGradient>
</defs>
</svg>
