<svg width="25" height="24" viewBox="0 0 25 24" fill="none" xmlns="http://www.w3.org/2000/svg">
<path d="M3.01172 11.22V15.71C3.01172 20.2 4.81172 22 9.30172 22H14.6917C19.1817 22 20.9817 20.2 20.9817 15.71V11.22" stroke="white" stroke-width="1.5" stroke-linecap="round" stroke-linejoin="round"/>
<path d="M12.0024 12C13.8324 12 15.1824 10.51 15.0024 8.68L14.3424 2H9.67243L9.00243 8.68C8.82243 10.51 10.1724 12 12.0024 12Z" stroke="white" stroke-width="1.5" stroke-linecap="round" stroke-linejoin="round"/>
<path d="M18.3127 12C20.3327 12 21.8127 10.36 21.6127 8.35L21.3327 5.6C20.9727 3 19.9727 2 17.3527 2H14.3027L15.0027 9.01C15.1727 10.66 16.6627 12 18.3127 12Z" stroke="white" stroke-width="1.5" stroke-linecap="round" stroke-linejoin="round"/>
<path d="M5.64232 12C7.29232 12 8.78232 10.66 8.94232 9.01L9.16232 6.8L9.64232 2H6.59232C3.97232 2 2.97232 3 2.61232 5.6L2.34232 8.35C2.14232 10.36 3.62232 12 5.64232 12Z" stroke="white" stroke-width="1.5" stroke-linecap="round" stroke-linejoin="round"/>
<path d="M12.002 17C10.332 17 9.50195 17.83 9.50195 19.5V22H14.502V19.5C14.502 17.83 13.672 17 12.002 17Z" stroke="white" stroke-width="1.5" stroke-linecap="round" stroke-linejoin="round"/>
</svg>
