<?xml version="1.0" encoding="utf-8"?>
<!-- Generator: Adobe Illustrator 24.1.1, SVG Export Plug-In . SVG Version: 6.00 Build 0)  -->
<svg xmlns="http://www.w3.org/2000/svg" xmlns:xlink="http://www.w3.org/1999/xlink" version="1.1" id="Layer_1" x="0px" y="0px" viewBox="0 0 250 2140" style="enable-background:new 0 0 250 2140;" xml:space="preserve">
<style type="text/css">
	.st0{fill:none;stroke:#FFFFFF;stroke-width:1.5;stroke-linecap:round;stroke-linejoin:round;}
	.st1{fill:url(#SVGID_1_);}
	.st2{fill:url(#SVGID_2_);}
	.st3{fill:url(#SVGID_3_);}
	.st4{fill:url(#SVGID_4_);}
	.st5{fill:url(#SVGID_5_);}
	.st6{fill:url(#SVGID_6_);}
	.st7{fill:none;stroke:#FFFFFF;stroke-width:2;stroke-linecap:round;stroke-linejoin:round;}
	.st8{fill:url(#SVGID_7_);}
	.st9{fill:none;stroke:#FFFFFF;stroke-width:1.5;stroke-linecap:round;stroke-linejoin:round;stroke-miterlimit:10;}
	.st10{fill:#FFFFFF;}
	.st11{fill:url(#SVGID_8_);}
	.st12{fill:url(#SVGID_9_);}
	.st13{fill:url(#SVGID_10_);}
	.st14{fill:url(#SVGID_11_);}
	.st15{fill:url(#SVGID_12_);}
	.st16{fill:url(#SVGID_13_);}
	.st17{fill:url(#SVGID_14_);}
	.st18{fill:url(#SVGID_15_);}
	.st19{fill:url(#SVGID_16_);}
	.st20{fill:url(#SVGID_17_);}
	.st21{fill:none;stroke:#FFFFFF;stroke-width:1.5;}
	.st22{fill:none;stroke:#FFFFFF;stroke-width:1.5;stroke-linecap:round;}
	.st23{fill:url(#SVGID_18_);}
	.st24{fill:url(#SVGID_19_);}
	.st25{fill:url(#SVGID_20_);}
	.st26{fill:url(#SVGID_21_);}
	.st27{fill:url(#SVGID_22_);}
	
		.st28{fill:url(#SVGID_23_);stroke:url(#SVGID_24_);stroke-width:1.5;stroke-linecap:round;stroke-linejoin:round;stroke-miterlimit:10;}
	.st29{fill:url(#SVGID_25_);}
	.st30{fill:url(#SVGID_26_);}
	.st31{fill:url(#SVGID_27_);}
	.st32{fill:url(#SVGID_28_);}
	.st33{fill:url(#SVGID_29_);}
	.st34{fill:url(#SVGID_30_);}
	.st35{fill:url(#SVGID_31_);stroke:#FFFFFF;stroke-width:1.5;stroke-linecap:round;stroke-linejoin:round;stroke-miterlimit:10;}
</style>
<path class="st0" d="M135.1,60.9v-4.5c0-1.4-0.6-2-2.2-2h-4c-1.6,0-2.2,0.6-2.2,2v4.5c0,1.4,0.6,2,2.2,2h4  C134.4,62.8,135.1,62.3,135.1,60.9z"/>
<path class="st0" d="M135.1,72.1v-4c0-1.6-0.6-2.2-2.2-2.2h-4c-1.6,0-2.2,0.6-2.2,2.2v4c0,1.6,0.6,2.2,2.2,2.2h4  C134.4,74.3,135.1,73.7,135.1,72.1z"/>
<path class="st0" d="M123.6,60.9v-4.5c0-1.4-0.6-2-2.2-2h-4c-1.6,0-2.2,0.6-2.2,2v4.5c0,1.4,0.6,2,2.2,2h4  C122.9,62.8,123.6,62.3,123.6,60.9z"/>
<path class="st0" d="M123.6,72.1v-4c0-1.6-0.6-2.2-2.2-2.2h-4c-1.6,0-2.2,0.6-2.2,2.2v4c0,1.6,0.6,2.2,2.2,2.2h4  C122.9,74.3,123.6,73.7,123.6,72.1z"/>
<linearGradient id="SVGID_1_" gradientUnits="userSpaceOnUse" x1="102.2236" y1="151.6109" x2="138.5835" y2="154.5976" gradientTransform="matrix(1 0 0 1 0 2)">
	<stop offset="0" style="stop-color:#0338D1"/>
	<stop offset="0.383" style="stop-color:#1CFCFC"/>
	<stop offset="0.6239" style="stop-color:#36FCFC"/>
	<stop offset="0.8854" style="stop-color:#0495E7"/>
</linearGradient>
<path class="st1" d="M134.9,158.2v-4.5c0-1.4-0.6-2-2.2-2h-4c-1.6,0-2.2,0.6-2.2,2v4.5c0,1.4,0.6,2,2.2,2h4  C134.3,160.2,134.9,159.7,134.9,158.2z"/>
<linearGradient id="SVGID_2_" gradientUnits="userSpaceOnUse" x1="102.2195" y1="163.1633" x2="138.58" y2="166.1465" gradientTransform="matrix(1 0 0 1 0 2)">
	<stop offset="0" style="stop-color:#0338D1"/>
	<stop offset="0.383" style="stop-color:#1CFCFC"/>
	<stop offset="0.6239" style="stop-color:#36FCFC"/>
	<stop offset="0.8854" style="stop-color:#0495E7"/>
</linearGradient>
<path class="st2" d="M134.9,169.5v-4c0-1.6-0.6-2.2-2.2-2.2h-4c-1.6,0-2.2,0.6-2.2,2.2v4c0,1.6,0.6,2.2,2.2,2.2h4  C134.3,171.7,134.9,171.1,134.9,169.5z"/>
<linearGradient id="SVGID_3_" gradientUnits="userSpaceOnUse" x1="90.7236" y1="151.6109" x2="127.0835" y2="154.5976" gradientTransform="matrix(1 0 0 1 0 2)">
	<stop offset="0" style="stop-color:#0338D1"/>
	<stop offset="0.383" style="stop-color:#1CFCFC"/>
	<stop offset="0.6239" style="stop-color:#36FCFC"/>
	<stop offset="0.8854" style="stop-color:#0495E7"/>
</linearGradient>
<path class="st3" d="M123.4,158.2v-4.5c0-1.4-0.6-2-2.2-2h-4c-1.6,0-2.2,0.6-2.2,2v4.5c0,1.4,0.6,2,2.2,2h4  C122.8,160.2,123.4,159.7,123.4,158.2z"/>
<linearGradient id="SVGID_4_" gradientUnits="userSpaceOnUse" x1="90.7195" y1="163.1633" x2="127.08" y2="166.1465" gradientTransform="matrix(1 0 0 1 0 2)">
	<stop offset="0" style="stop-color:#0338D1"/>
	<stop offset="0.383" style="stop-color:#1CFCFC"/>
	<stop offset="0.6239" style="stop-color:#36FCFC"/>
	<stop offset="0.8854" style="stop-color:#0495E7"/>
</linearGradient>
<path class="st4" d="M123.4,169.5v-4c0-1.6-0.6-2.2-2.2-2.2h-4c-1.6,0-2.2,0.6-2.2,2.2v4c0,1.6,0.6,2.2,2.2,2.2h4  C122.8,171.7,123.4,171.1,123.4,169.5z"/>
<path class="st0" d="M123.1,255.7c-0.1,0-0.2,0-0.2,0c-1.8-0.1-3.2-1.5-3.2-3.3s1.5-3.3,3.3-3.3s3.3,1.5,3.3,3.3  C126.2,254.2,124.8,255.7,123.1,255.7z"/>
<path class="st0" d="M129.7,262.3c-1.8,1.6-4.1,2.6-6.7,2.6s-5-1-6.7-2.6c0.1-0.9,0.7-1.9,1.8-2.6c2.7-1.8,7.2-1.8,9.9,0  C129,260.5,129.6,261.4,129.7,262.3z"/>
<path class="st0" d="M122.9,264.9c5.5,0,10-4.5,10-10s-4.5-10-10-10s-10,4.5-10,10C112.9,260.5,117.4,264.9,122.9,264.9z"/>
<linearGradient id="SVGID_5_" gradientUnits="userSpaceOnUse" x1="57.2612" y1="340.0525" x2="142.8154" y2="347.0719" gradientTransform="matrix(1 0 0 1 0 2)">
	<stop offset="0" style="stop-color:#0338D1"/>
	<stop offset="0.383" style="stop-color:#1CFCFC"/>
	<stop offset="0.6239" style="stop-color:#36FCFC"/>
	<stop offset="0.8854" style="stop-color:#0495E7"/>
</linearGradient>
<path class="st5" d="M134.2,347.6c0-5.5-4.5-10-10-10s-10,4.5-10,10c0,2.9,1.3,5.5,3.2,7.3l0,0c0.1,0.1,0.2,0.2,0.3,0.3  c0.1,0,0.1,0.1,0.2,0.1c0.2,0.1,0.4,0.3,0.6,0.4c0.1,0,0.1,0.1,0.2,0.1c0.2,0.1,0.4,0.3,0.6,0.4c0.1,0,0.2,0.1,0.2,0.1  c0.2,0.1,0.4,0.2,0.6,0.3c0.1,0,0.2,0.1,0.2,0.1c0.2,0.1,0.4,0.2,0.7,0.2c0.1,0,0.2,0.1,0.2,0.1c0.2,0.1,0.5,0.1,0.7,0.2  c0.1,0,0.1,0,0.2,0.1c0.3,0.1,0.6,0.1,0.9,0.1h0.1c0.3,0,0.7,0,1,0s0.7,0,1,0h0.1c0.3,0,0.6-0.1,0.8-0.1c0.1,0,0.1,0,0.2-0.1  c0.2-0.1,0.5-0.1,0.7-0.2c0.1,0,0.2-0.1,0.2-0.1c0.2-0.1,0.5-0.1,0.7-0.2c0.1,0,0.2-0.1,0.2-0.1c0.2-0.1,0.4-0.2,0.6-0.3  c0.1,0,0.1-0.1,0.2-0.1c0.2-0.1,0.4-0.2,0.6-0.4c0.1,0,0.1-0.1,0.2-0.1c0.2-0.1,0.4-0.3,0.6-0.4c0.1-0.1,0.1-0.1,0.2-0.1  c0.1-0.1,0.2-0.2,0.3-0.3l0,0C133,353.1,134.2,350.5,134.2,347.6z M129.2,352.5c-2.7-1.8-7.2-1.8-9.9,0c-0.4,0.3-0.8,0.6-1.1,1  c-1.5-1.5-2.5-3.6-2.5-6c0-4.7,3.8-8.5,8.5-8.5s8.5,3.8,8.5,8.5c0,2.3-0.9,4.4-2.5,6C130,353.2,129.6,352.8,129.2,352.5z"/>
<linearGradient id="SVGID_6_" gradientUnits="userSpaceOnUse" x1="99.1185" y1="342.1935" x2="131.2007" y2="344.8293" gradientTransform="matrix(1 0 0 1 0 2)">
	<stop offset="0" style="stop-color:#0338D1"/>
	<stop offset="0.383" style="stop-color:#1CFCFC"/>
	<stop offset="0.6239" style="stop-color:#36FCFC"/>
	<stop offset="0.8854" style="stop-color:#0495E7"/>
</linearGradient>
<path class="st6" d="M124.2,342.5c-2.1,0-3.8,1.7-3.8,3.8c0,2,1.6,3.7,3.7,3.7h0.1c0,0,0,0,0.1,0l0,0c2-0.1,3.6-1.7,3.6-3.7  C128,344.2,126.3,342.5,124.2,342.5z"/>
<path class="st0" d="M121.6,456.6h4c5,0,7-2,7-7v-6c0-5-2-7-7-7h-4c-5,0-7,2-7,7v6C114.6,454.6,116.6,456.6,121.6,456.6z"/>
<path class="st0" d="M128.1,442.1v1c0,0.8-0.7,1.5-1.5,1.5h-6c-0.8,0-1.5-0.7-1.5-1.5v-1c0-0.8,0.7-1.5,1.5-1.5h6  C127.4,440.6,128.1,441.3,128.1,442.1z"/>
<path class="st7" d="M119.7,448.6L119.7,448.6"/>
<path class="st7" d="M123.6,448.6L123.6,448.6"/>
<path class="st7" d="M127.4,448.6L127.4,448.6"/>
<path class="st7" d="M119.7,452.1L119.7,452.1"/>
<path class="st7" d="M123.6,452.1L123.6,452.1"/>
<path class="st7" d="M127.4,452.1L127.4,452.1"/>
<linearGradient id="SVGID_7_" gradientUnits="userSpaceOnUse" x1="83.6985" y1="543.5778" x2="135.0963" y2="547.373" gradientTransform="matrix(1 0 0 1 0 2)">
	<stop offset="0" style="stop-color:#0338D1"/>
	<stop offset="0.383" style="stop-color:#1CFCFC"/>
	<stop offset="0.6239" style="stop-color:#36FCFC"/>
	<stop offset="0.8854" style="stop-color:#0495E7"/>
</linearGradient>
<path class="st8" d="M126.6,541.9h-5.3c-1.8,0-3.3,1.5-3.3,3.3v6.7c0,1.8,1.5,3.3,3.3,3.3h5.3c1.8,0,3.3-1.5,3.3-3.3v-6.7  C129.9,543.4,128.4,541.9,126.6,541.9z M121.8,553c-0.1,0.1-0.3,0.2-0.5,0.2s-0.3-0.1-0.5-0.2s-0.2-0.3-0.2-0.5s0.1-0.3,0.2-0.5  c0.1-0.1,0.1-0.1,0.2-0.1c0.2-0.1,0.3-0.1,0.5,0c0,0,0.1,0,0.1,0.1l0.1,0.1c0.1,0.1,0.2,0.3,0.2,0.5C122,552.7,122,552.8,121.8,553z   M120.7,549.8c0-0.1,0-0.2,0.1-0.3c0-0.1,0.1-0.2,0.1-0.2c0.2-0.2,0.4-0.2,0.6-0.2h0.1c0,0,0.1,0,0.1,0.1l0.1,0.1  c0.1,0.1,0.1,0.1,0.1,0.2c0,0.1,0,0.2,0,0.3c0,0.2-0.1,0.3-0.2,0.5c-0.1,0.1-0.3,0.2-0.5,0.2c-0.1,0-0.2,0-0.3-0.1  c-0.1,0-0.2-0.1-0.2-0.1C120.8,550.2,120.7,550,120.7,549.8z M124.5,553c-0.1,0.1-0.1,0.1-0.2,0.1s-0.2,0.1-0.3,0.1  c-0.2,0-0.3-0.1-0.5-0.2c-0.1-0.1-0.2-0.3-0.2-0.5v-0.1v-0.1c0,0,0-0.1,0.1-0.1l0.1-0.1c0.1-0.1,0.1-0.1,0.2-0.1  c0.2-0.1,0.5,0,0.7,0.1c0.1,0.1,0.2,0.3,0.2,0.5C124.7,552.7,124.6,552.8,124.5,553z M124.5,550.3c-0.1,0.1-0.3,0.2-0.5,0.2  s-0.3-0.1-0.5-0.2c-0.1-0.1-0.2-0.3-0.2-0.5s0.1-0.3,0.2-0.5c0.2-0.2,0.7-0.2,0.9,0c0.1,0.1,0.1,0.1,0.1,0.2c0,0.1,0,0.2,0,0.3  C124.7,550,124.6,550.2,124.5,550.3z M121.9,547.5c-0.7,0-1.3-0.6-1.3-1.3v-0.7c0-0.7,0.6-1.3,1.3-1.3h4c0.7,0,1.3,0.6,1.3,1.3v0.7  c0,0.7-0.6,1.3-1.3,1.3H121.9z M127.2,553c-0.1,0.1-0.3,0.2-0.5,0.2c-0.1,0-0.2,0-0.3-0.1c-0.1,0-0.2-0.1-0.2-0.1  c-0.1-0.1-0.2-0.3-0.2-0.5s0.1-0.3,0.2-0.5c0.2-0.2,0.5-0.2,0.7-0.1c0.1,0,0.2,0.1,0.2,0.1c0.1,0.1,0.2,0.3,0.2,0.5  C127.4,552.7,127.3,552.8,127.2,553z M127.3,550.1c0,0.1-0.1,0.2-0.1,0.2c-0.1,0.1-0.3,0.2-0.5,0.2s-0.3-0.1-0.5-0.2  c-0.1-0.1-0.2-0.3-0.2-0.5s0.1-0.3,0.2-0.5c0.2-0.2,0.7-0.2,0.9,0c0.1,0.1,0.2,0.3,0.2,0.5C127.4,549.9,127.4,550,127.3,550.1z"/>
<path class="st0" d="M134.8,648.1c0,3.9-3.1,7-7,7l1.1-1.8"/>
<path class="st0" d="M112.8,640.1c0-3.9,3.1-7,7-7l-1.1,1.8"/>
<path class="st9" d="M126.7,647.5c0,3.4-2.8,6.2-6.2,6.2c-3.4,0-6.2-2.8-6.2-6.2s2.8-6.2,6.2-6.2c0.2,0,0.3,0,0.5,0  c3,0.2,5.4,2.7,5.7,5.7C126.7,647.2,126.7,647.3,126.7,647.5z"/>
<path class="st10" d="M119.1,647.2l-0.5-0.5l1.7-1.8l1.7,1.8l-0.5,0.5l-1.2-1.2L119.1,647.2z M123.7,648.6l-3.3,3.5l0,0l0,0l0,0l0,0  l-3.3-3.5c0,0,0,0,0-0.1v-0.1l0.9-0.9l-0.8-0.8l0,0l0,0l0,0l0,0l3.2-3.4c0,0,0,0,0.1,0c0,0,0,0,0.1,0c0,0,0,0,0.1,0c0,0,0,0,0.1,0  l3.3,3.4l0,0l0,0l0,0l0,0l-0.8,0.8l0.9,0.9C123.7,648.5,123.7,648.5,123.7,648.6L123.7,648.6z M118.2,647.1l0.2,0.2l1.8,1.8l0,0l0,0  l0,0l0,0l2.2-2.3l0,0l0,0l0,0l0,0l-2.2-2.3l0,0l0,0l0,0l0,0l-2.2,2.3l0,0l0,0l0,0l0,0L118.2,647.1z M122.7,648.5l-0.3-0.3l-2,2.1  l0,0l0,0l0,0l0,0l-2-2.1l-0.3,0.3l0,0l0,0l0,0l0,0l2.3,2.4l0,0l0,0l0,0l0,0L122.7,648.5L122.7,648.5  C122.7,648.6,122.7,648.6,122.7,648.5L122.7,648.5L122.7,648.5z M119.5,647.6l0.5,0.5l0.3-0.3l0.3,0.3l0.5-0.5l-0.8-0.9L119.5,647.6  z"/>
<path class="st9" d="M133.3,640.8c0,3.4-2.8,6.2-6.2,6.2h-0.5c-0.2-3-2.7-5.5-5.7-5.7v-0.5c0-3.4,2.8-6.2,6.2-6.2  C130.6,634.7,133.3,637.4,133.3,640.8z"/>
<linearGradient id="SVGID_8_" gradientUnits="userSpaceOnUse" x1="109.8712" y1="753.9427" x2="134.1017" y2="755.9298" gradientTransform="matrix(1 0 0 1 0 2)">
	<stop offset="0" style="stop-color:#0338D1"/>
	<stop offset="0.383" style="stop-color:#1CFCFC"/>
	<stop offset="0.6239" style="stop-color:#36FCFC"/>
	<stop offset="0.8854" style="stop-color:#0495E7"/>
</linearGradient>
<path class="st11" d="M131.2,754.6c-0.3,0-0.5,0.2-0.5,0.5c0,2-1.4,3.6-3.2,4.1l0.2-0.3c0.1-0.2,0.1-0.5-0.2-0.7  c-0.2-0.1-0.5-0.1-0.7,0.2l-0.7,1.2c-0.1,0.2-0.1,0.3,0,0.5s0.3,0.3,0.4,0.3c2.8,0,5.2-2.3,5.2-5.2  C131.7,754.8,131.5,754.6,131.2,754.6z"/>
<linearGradient id="SVGID_9_" gradientUnits="userSpaceOnUse" x1="99.8701" y1="743.8926" x2="124.114" y2="745.8821" gradientTransform="matrix(1 0 0 1 0 2)">
	<stop offset="0" style="stop-color:#0338D1"/>
	<stop offset="0.383" style="stop-color:#1CFCFC"/>
	<stop offset="0.6239" style="stop-color:#36FCFC"/>
	<stop offset="0.8854" style="stop-color:#0495E7"/>
</linearGradient>
<path class="st12" d="M121.2,744.6c-2.8,0-5.2,2.3-5.2,5.2c0,0.3,0.2,0.5,0.5,0.5s0.5-0.2,0.5-0.5c0-2,1.4-3.6,3.2-4.1L120,746  c-0.1,0.2-0.1,0.5,0.2,0.7c0.2,0.1,0.5,0.1,0.7-0.2l0.7-1.2c0.1-0.2,0.1-0.3,0-0.5C121.5,744.7,121.4,744.6,121.2,744.6z"/>
<linearGradient id="SVGID_10_" gradientUnits="userSpaceOnUse" x1="98.7264" y1="745.9573" x2="133.6895" y2="748.8258" gradientTransform="matrix(1 0 0 1 0 2)">
	<stop offset="0" style="stop-color:#0338D1"/>
	<stop offset="0.383" style="stop-color:#1CFCFC"/>
	<stop offset="0.6239" style="stop-color:#36FCFC"/>
	<stop offset="0.8854" style="stop-color:#0495E7"/>
</linearGradient>
<path class="st13" d="M130.2,750.2c0,2.1-1.5,3.7-3.4,4.1l0,0c-0.2-2.5-2.2-4.5-4.7-4.7c0.3-2,2-3.4,4.1-3.4  C128.3,746.1,130.2,748,130.2,750.2z"/>
<g>
	
		<linearGradient id="SVGID_11_" gradientUnits="userSpaceOnUse" x1="116.4615" y1="750.5276" x2="123.0013" y2="752.2722" gradientTransform="matrix(1 0 0 1 0 2)">
		<stop offset="0" style="stop-color:#0338D1"/>
		<stop offset="0.383" style="stop-color:#1CFCFC"/>
		<stop offset="0.6239" style="stop-color:#36FCFC"/>
		<stop offset="0.8854" style="stop-color:#0495E7"/>
	</linearGradient>
	<path class="st14" d="M122.4,753.9c0-0.1-0.1-0.3-0.3-0.3h-1.4v0.5h1.4C122.3,754.2,122.4,754.1,122.4,753.9z"/>
</g>
<linearGradient id="SVGID_12_" gradientUnits="userSpaceOnUse" x1="115.6397" y1="751.4785" x2="123.4361" y2="754.0457" gradientTransform="matrix(1 0 0 1 0 2)">
	<stop offset="0" style="stop-color:#0338D1"/>
	<stop offset="0.383" style="stop-color:#1CFCFC"/>
	<stop offset="0.6239" style="stop-color:#36FCFC"/>
	<stop offset="0.8854" style="stop-color:#0495E7"/>
</linearGradient>
<path class="st15" d="M122.4,755.2h-0.3h-1.4v0.5h1.6c0.2,0,0.4-0.1,0.4-0.3S122.6,755.2,122.4,755.2z"/>
<linearGradient id="SVGID_13_" gradientUnits="userSpaceOnUse" x1="94.4014" y1="750.2307" x2="129.6212" y2="753.1203" gradientTransform="matrix(1 0 0 1 0 2)">
	<stop offset="0" style="stop-color:#0338D1"/>
	<stop offset="0.383" style="stop-color:#1CFCFC"/>
	<stop offset="0.6239" style="stop-color:#36FCFC"/>
	<stop offset="0.8854" style="stop-color:#0495E7"/>
</linearGradient>
<path class="st16" d="M126.1,754.2c-0.2-2-1.8-3.6-3.8-3.8c-0.1,0-0.2,0-0.3,0c-2.3,0-4.1,1.8-4.1,4.1s1.8,4.1,4.1,4.1  s4.1-1.8,4.1-4.1C126.1,754.5,126.1,754.4,126.1,754.2z"/>
<path class="st10" d="M121.4,754.5l-0.3-0.4l1.1-1.2l1.1,1.2l-0.3,0.4l-0.8-0.8L121.4,754.5z M124.4,755.4l-2.2,2.3l0,0l0,0l0,0l0,0  l-2.2-2.3l0,0l0,0l0.6-0.6l-0.5-0.6l0,0l0,0l0,0l0,0l2.2-2.3l0,0l0,0l0,0l0,0l2.2,2.3l0,0l0,0l0,0l0,0l-0.5,0.6L124.4,755.4  C124.4,755.3,124.5,755.4,124.4,755.4C124.5,755.4,124.4,755.4,124.4,755.4z M120.8,754.4L120.8,754.4l1.3,1.3l0,0l0,0l0,0l0,0  l1.5-1.6l0,0l0,0l0,0l0,0l-1.5-1.6l0,0l0,0l0,0l0,0l-1.5,1.6l0,0l0,0l0,0l0,0L120.8,754.4z M123.7,755.3l-0.2-0.2l-1.3,1.4l0,0l0,0  l0,0l0,0l-1.3-1.4l-0.2,0.2l0,0l0,0l0,0l0,0l1.5,1.6l0,0l0,0l0,0l0,0L123.7,755.3C123.7,755.4,123.7,755.4,123.7,755.3  C123.8,755.4,123.8,755.4,123.7,755.3C123.8,755.4,123.8,755.4,123.7,755.3L123.7,755.3z M121.6,754.7l0.3,0.4l0.2-0.2l0.2,0.2  l0.3-0.4l-0.6-0.6L121.6,754.7z"/>
<path class="st0" d="M132.1,841.6c0,5.5-4.5,10-10,10s-8.9-5.6-8.9-5.6 M113.2,846h4.5 M113.2,846v5 M112.1,841.6  c0-5.5,4.4-10,10-10c6.7,0,10,5.6,10,5.6 M132.1,837.2v-5 M132.1,837.2h-4.4"/>
<linearGradient id="SVGID_14_" gradientUnits="userSpaceOnUse" x1="76.7482" y1="938.0385" x2="133.7562" y2="942.7134" gradientTransform="matrix(1 0 0 1 0 2)">
	<stop offset="0" style="stop-color:#0338D1"/>
	<stop offset="0.383" style="stop-color:#1CFCFC"/>
	<stop offset="0.6239" style="stop-color:#36FCFC"/>
	<stop offset="0.8854" style="stop-color:#0495E7"/>
</linearGradient>
<path class="st17" d="M124.2,937h-5.6c-2.4,0-3.9,1.4-3.9,3.9v5.6c0,2.4,1.4,3.9,3.9,3.9h5.6c2.4,0,3.9-1.4,3.9-3.9v-5.6  C128,938.4,126.6,937,124.2,937z M121.4,947.8c-1.2,0-2.1-0.6-2.8-1.2v0.5c0,0.3-0.2,0.5-0.5,0.5s-0.5-0.2-0.5-0.5v-1.8  c0-0.3,0.2-0.5,0.5-0.5h1.7c0.3,0,0.5,0.2,0.5,0.5s-0.2,0.5-0.5,0.5h-0.6c0.5,0.5,1.3,1,2.2,1c1.7,0,3.2-1.4,3.2-3.2  c0-0.3,0.2-0.5,0.5-0.5s0.5,0.2,0.5,0.5C125.5,946,123.7,947.8,121.4,947.8z M125.5,942C125.5,942,125.5,942.1,125.5,942  c0,0.1,0,0.2-0.1,0.3c0,0.1-0.1,0.1-0.1,0.2c0,0-0.1,0.1-0.2,0.1H125h-1.6c-0.3,0-0.5-0.2-0.5-0.5s0.2-0.5,0.5-0.5h0.6  c-0.5-0.5-1.4-1-2.6-1c-1.7,0-3.2,1.4-3.2,3.2c0,0.3-0.2,0.5-0.5,0.5s-0.5-0.2-0.5-0.5c0-2.3,1.9-4.2,4.2-4.2c1.4,0,2.5,0.6,3.2,1.2  v-0.5c0-0.3,0.2-0.5,0.5-0.5s0.5,0.2,0.5,0.5v1.7H125.5z"/>
<path class="st0" d="M113.5,1044.9v4.5c0,4.5,1.8,6.3,6.3,6.3h5.4c4.5,0,6.3-1.8,6.3-6.3v-4.5"/>
<path class="st0" d="M122.5,1045.7c1.8,0,3.2-1.5,3-3.3l-0.7-6.7h-4.7l-0.7,6.7C119.3,1044.2,120.6,1045.7,122.5,1045.7z"/>
<path class="st0" d="M128.8,1045.7c2,0,3.5-1.6,3.3-3.7l-0.3-2.8c-0.4-2.6-1.4-3.6-4-3.6h-3.1l0.7,7  C125.6,1044.3,127.1,1045.7,128.8,1045.7z"/>
<path class="st0" d="M116.1,1045.7c1.7,0,3.1-1.3,3.3-3l0.2-2.2l0.5-4.8H117c-2.6,0-3.6,1-4,3.6l-0.3,2.8  C112.6,1044,114.1,1045.7,116.1,1045.7z"/>
<path class="st0" d="M122.5,1050.7c-1.7,0-2.5,0.8-2.5,2.5v2.5h5v-2.5C125,1051.5,124.1,1050.7,122.5,1050.7z"/>
<linearGradient id="SVGID_15_" gradientUnits="userSpaceOnUse" x1="77.1837" y1="1147.4396" x2="135.6398" y2="1156.1183" gradientTransform="matrix(1 0 0 1 0 2)">
	<stop offset="0" style="stop-color:#0338D1"/>
	<stop offset="0.383" style="stop-color:#1CFCFC"/>
	<stop offset="0.6239" style="stop-color:#36FCFC"/>
	<stop offset="0.8854" style="stop-color:#0495E7"/>
</linearGradient>
<path class="st18" d="M129.9,1157l-0.2-1.8c-0.3-2-1.2-2.8-3.1-2.8H125h-1h-2h-1h-1.6c-2,0-2.9,0.8-3.2,2.9l-0.2,1.8  c-0.1,0.7,0.1,1.4,0.5,1.9c0.5,0.7,1.3,1,2.2,1c0.8,0,1.6-0.4,2.2-1.1c0.5,0.7,1.2,1.1,2.1,1.1s1.6-0.4,2.1-1.1  c0.5,0.7,1.3,1.1,2.1,1.1c0.9,0,1.7-0.4,2.2-1.1C129.8,1158.4,129.9,1157.7,129.9,1157z"/>
<linearGradient id="SVGID_16_" gradientUnits="userSpaceOnUse" x1="110.1291" y1="1161.4929" x2="126.5273" y2="1162.8372" gradientTransform="matrix(1 0 0 1 0 2)">
	<stop offset="0" style="stop-color:#0338D1"/>
	<stop offset="0.383" style="stop-color:#1CFCFC"/>
	<stop offset="0.6239" style="stop-color:#36FCFC"/>
	<stop offset="0.8854" style="stop-color:#0495E7"/>
</linearGradient>
<path class="st19" d="M122.5,1162.6c-0.8,0.1-1.5,0.8-1.5,1.7v1.8c0,0.2,0.1,0.3,0.3,0.3h3.2c0.2,0,0.3-0.1,0.3-0.3v-1.6  C124.9,1163.1,124.1,1162.4,122.5,1162.6z"/>
<linearGradient id="SVGID_17_" gradientUnits="userSpaceOnUse" x1="81.8758" y1="1154.6384" x2="134.3858" y2="1162.8768" gradientTransform="matrix(1 0 0 1 0 2)">
	<stop offset="0" style="stop-color:#0338D1"/>
	<stop offset="0.383" style="stop-color:#1CFCFC"/>
	<stop offset="0.6239" style="stop-color:#36FCFC"/>
	<stop offset="0.8854" style="stop-color:#0495E7"/>
</linearGradient>
<path class="st20" d="M129.2,1161.1v2c0,1.8-1.5,3.3-3.3,3.3c-0.2,0-0.3-0.1-0.3-0.3v-1.6c0-0.9-0.3-1.5-0.8-2  c-0.4-0.4-1.1-0.6-1.8-0.6c-0.2,0-0.3,0-0.5,0c-1.2,0.1-2.1,1.1-2.1,2.3v1.8c0,0.2-0.1,0.3-0.3,0.3c-1.8,0-3.3-1.5-3.3-3.3v-2  c0-0.5,0.5-0.8,0.9-0.6c0.2,0.1,0.4,0.1,0.5,0.1s0.2,0,0.2,0c0.1,0,0.2,0,0.3,0c0.8,0,1.5-0.3,2.1-0.8c0.6,0.5,1.3,0.8,2.1,0.8  c0.8,0,1.5-0.3,2.1-0.8c0.6,0.5,1.3,0.8,2.1,0.8c0.1,0,0.2,0,0.4,0c0.1,0,0.2,0,0.2,0c0.2,0,0.4-0.1,0.6-0.1  C128.8,1160.3,129.2,1160.6,129.2,1161.1z"/>
<path class="st9" d="M119.9,1266.1c0,1.9,1.6,3.5,3.5,3.5s3.5-1.6,3.5-3.5"/>
<path class="st9" d="M120.2,1253.9l-3.6,3.6"/>
<path class="st9" d="M126.6,1253.9l3.6,3.6"/>
<path class="st21" d="M113.4,1259.7c0-1.9,1-2,2.2-2h15.6c1.2,0,2.2,0.1,2.2,2c0,2.1-1,2-2.2,2h-15.6  C114.4,1261.7,113.4,1261.9,113.4,1259.7z"/>
<path class="st22" d="M114.9,1261.9l1.4,8.6c0.3,1.9,1.1,3.4,3.9,3.4h6c3.1,0,3.6-1.4,3.9-3.2l1.7-8.8"/>
<linearGradient id="SVGID_18_" gradientUnits="userSpaceOnUse" x1="79.0331" y1="1349.9526" x2="134.4817" y2="1360.4078" gradientTransform="matrix(1 0 0 1 0 2)">
	<stop offset="0" style="stop-color:#0338D1"/>
	<stop offset="0.383" style="stop-color:#1CFCFC"/>
	<stop offset="0.6239" style="stop-color:#36FCFC"/>
	<stop offset="0.8854" style="stop-color:#0495E7"/>
</linearGradient>
<path class="st23" d="M127.3,1359.3H127l-2.3-2.3c-0.2-0.2-0.5-0.2-0.7,0s-0.2,0.5,0,0.7l1.6,1.6h-6.5l1.6-1.6  c0.2-0.2,0.2-0.5,0-0.7s-0.5-0.2-0.7,0l-2.2,2.3h-0.3c-0.6,0-1.8,0-1.8,1.7c0,0.6,0.1,1.1,0.4,1.4c0.2,0.2,0.4,0.3,0.6,0.3  s0.4,0.1,0.6,0.1h10.2c0.2,0,0.4,0,0.6-0.1c0.6-0.1,1-0.5,1-1.7C129.2,1359.3,127.9,1359.3,127.3,1359.3z"/>
<linearGradient id="SVGID_19_" gradientUnits="userSpaceOnUse" x1="86.7655" y1="1359.9442" x2="132.4199" y2="1366.0056" gradientTransform="matrix(1 0 0 1 0 2)">
	<stop offset="0" style="stop-color:#0338D1"/>
	<stop offset="0.383" style="stop-color:#1CFCFC"/>
	<stop offset="0.6239" style="stop-color:#36FCFC"/>
	<stop offset="0.8854" style="stop-color:#0495E7"/>
</linearGradient>
<path class="st24" d="M127.2,1363.5h-9.5c-0.4,0-0.7,0.4-0.7,0.8l0.6,3.4c0.2,1.1,0.7,2.5,2.9,2.5h3.7c2.2,0,2.6-1.1,2.9-2.4  l0.7-3.5C127.9,1363.9,127.6,1363.5,127.2,1363.5z M122.5,1368.5c-1.6,0-2.8-1.3-2.8-2.8c0-0.3,0.2-0.5,0.5-0.5s0.5,0.2,0.5,0.5  c0,1,0.8,1.8,1.8,1.8s1.8-0.8,1.8-1.8c0-0.3,0.2-0.5,0.5-0.5s0.5,0.2,0.5,0.5C125.3,1367.3,124.1,1368.5,122.5,1368.5z"/>
<path class="st0" d="M128.4,1462.4c-0.4,0.4-0.7,1-0.6,1.6c0.1,1.1,1.1,1.9,2.2,1.9h1.9v1.2c0,2.1-1.7,3.8-3.8,3.8h-11.5  c-2.1,0-3.8-1.7-3.8-3.8v-6.7c0-2.1,1.7-3.8,3.8-3.8h11.5c2.1,0,3.8,1.7,3.8,3.8v1.4h-2C129.3,1461.8,128.8,1462,128.4,1462.4z"/>
<path class="st0" d="M112.9,1461.3v-4.6c0-1.2,0.7-2.3,1.8-2.7l7.9-3c1.2-0.5,2.6,0.5,2.6,1.8v3.8"/>
<path class="st0" d="M132.9,1462.8v2.1c0,0.5-0.4,1-1,1h-2c-1.1,0-2.1-0.8-2.2-1.9c-0.1-0.6,0.2-1.2,0.6-1.6  c0.4-0.4,0.9-0.6,1.4-0.6h2.1C132.5,1461.8,132.9,1462.3,132.9,1462.8z"/>
<path class="st0" d="M117.4,1460.8h7"/>
<linearGradient id="SVGID_20_" gradientUnits="userSpaceOnUse" x1="92.6629" y1="1559.7916" x2="127.7176" y2="1563.5463" gradientTransform="matrix(1 0 0 1 0 2)">
	<stop offset="0" style="stop-color:#0338D1"/>
	<stop offset="0.383" style="stop-color:#1CFCFC"/>
	<stop offset="0.6239" style="stop-color:#36FCFC"/>
	<stop offset="0.8854" style="stop-color:#0495E7"/>
</linearGradient>
<path class="st25" d="M124.2,1562.9v2.5h-1v-2.5c0-0.2-0.2-0.3-0.3-0.3h-0.1l-5.3,2c-0.4,0.1-0.6,0.5-0.6,0.8v0.4  c-0.6,0.5-1,1.2-1,2v-2.4c0-0.8,0.5-1.5,1.2-1.8l5.3-2c0.1-0.1,0.3-0.1,0.4-0.1C123.6,1561.6,124.2,1562.1,124.2,1562.9z"/>
<linearGradient id="SVGID_21_" gradientUnits="userSpaceOnUse" x1="121.0013" y1="1567.4021" x2="129.4984" y2="1568.4495" gradientTransform="matrix(1 0 0 1 0 2)">
	<stop offset="0" style="stop-color:#0338D1"/>
	<stop offset="0.383" style="stop-color:#1CFCFC"/>
	<stop offset="0.6239" style="stop-color:#36FCFC"/>
	<stop offset="0.8854" style="stop-color:#0495E7"/>
</linearGradient>
<path class="st26" d="M128.7,1569.9v0.7c0,0.2-0.1,0.3-0.3,0.3h-1c-0.4,0-0.7-0.3-0.7-0.6c0-0.2,0.1-0.4,0.2-0.5s0.3-0.2,0.5-0.2h1  C128.5,1569.6,128.7,1569.7,128.7,1569.9z"/>
<linearGradient id="SVGID_22_" gradientUnits="userSpaceOnUse" x1="80.1215" y1="1563.5304" x2="134.0254" y2="1569.4272" gradientTransform="matrix(1 0 0 1 0 2)">
	<stop offset="0" style="stop-color:#0338D1"/>
	<stop offset="0.383" style="stop-color:#1CFCFC"/>
	<stop offset="0.6239" style="stop-color:#36FCFC"/>
	<stop offset="0.8854" style="stop-color:#0495E7"/>
</linearGradient>
<path class="st27" d="M127.3,1568.9h0.7c0.4,0,0.7-0.3,0.7-0.7v-0.3c0-1.4-1.1-2.5-2.5-2.5h-7.7c-0.6,0-1.1,0.2-1.5,0.5  c-0.6,0.5-1,1.2-1,2v4.5c0,1.4,1.1,2.5,2.5,2.5h7.7c1.4,0,2.5-1.1,2.5-2.5v-0.1c0-0.4-0.3-0.7-0.7-0.7h-0.6c-0.6,0-1.3-0.4-1.4-1  c-0.1-0.5,0-1,0.4-1.3C126.6,1569,126.9,1568.9,127.3,1568.9z M123.7,1568.7H119c-0.3,0-0.5-0.2-0.5-0.5s0.2-0.5,0.5-0.5h4.7  c0.3,0,0.5,0.2,0.5,0.5S123.9,1568.7,123.7,1568.7z"/>
<path class="st9" d="M122.8,1669.7l9,3.6c0.4,0.1,0.6,0.6,0.6,0.9v3.3c0,0.6-0.4,1-1,1h-18c-0.6,0-1-0.4-1-1v-3.3  c0-0.4,0.3-0.8,0.6-0.9l9-3.6C122.3,1669.7,122.6,1669.7,122.8,1669.7z"/>
<path class="st9" d="M132.3,1689.6h-20v-3c0-0.5,0.4-1,1-1h18c0.6,0,1,0.5,1,1V1689.6z"/>
<path class="st9" d="M114.4,1685.6v-7"/>
<path class="st9" d="M118.4,1685.6v-7"/>
<path class="st9" d="M122.4,1685.6v-7"/>
<path class="st9" d="M126.4,1685.6v-7"/>
<path class="st9" d="M130.4,1685.6v-7"/>
<path class="st9" d="M111.4,1689.6h22"/>
<path class="st9" d="M122.4,1676.1c0.8,0,1.5-0.7,1.5-1.5s-0.7-1.5-1.5-1.5s-1.5,0.7-1.5,1.5S121.6,1676.1,122.4,1676.1z"/>
<linearGradient id="SVGID_23_" gradientUnits="userSpaceOnUse" x1="82.7702" y1="1787.3478" x2="131.919" y2="1807.51" gradientTransform="matrix(1 0 0 1 0 2)">
	<stop offset="0" style="stop-color:#0338D1"/>
	<stop offset="0.383" style="stop-color:#1CFCFC"/>
	<stop offset="0.6239" style="stop-color:#36FCFC"/>
	<stop offset="0.8854" style="stop-color:#0495E7"/>
</linearGradient>
<linearGradient id="SVGID_24_" gradientUnits="userSpaceOnUse" x1="82.7702" y1="1787.3478" x2="131.919" y2="1807.51" gradientTransform="matrix(1 0 0 1 0 2)">
	<stop offset="0" style="stop-color:#0338D1"/>
	<stop offset="0.383" style="stop-color:#1CFCFC"/>
	<stop offset="0.6239" style="stop-color:#36FCFC"/>
	<stop offset="0.8854" style="stop-color:#0495E7"/>
</linearGradient>
<path class="st28" d="M127.9,1804.4v2h-13.3v-2c0-0.4,0.3-0.7,0.7-0.7h12C127.6,1803.7,127.9,1804,127.9,1804.4z"/>
<linearGradient id="SVGID_25_" gradientUnits="userSpaceOnUse" x1="112.7992" y1="1799.2445" x2="118.5381" y2="1799.379" gradientTransform="matrix(1 0 0 1 0 2)">
	<stop offset="0" style="stop-color:#0338D1"/>
	<stop offset="0.383" style="stop-color:#1CFCFC"/>
	<stop offset="0.6239" style="stop-color:#36FCFC"/>
	<stop offset="0.8854" style="stop-color:#0495E7"/>
</linearGradient>
<path class="st29" d="M117.9,1799h-1.3v4.7h1.3V1799z"/>
<linearGradient id="SVGID_26_" gradientUnits="userSpaceOnUse" x1="115.4652" y1="1799.2438" x2="121.2041" y2="1799.3782" gradientTransform="matrix(1 0 0 1 0 2)">
	<stop offset="0" style="stop-color:#0338D1"/>
	<stop offset="0.383" style="stop-color:#1CFCFC"/>
	<stop offset="0.6239" style="stop-color:#36FCFC"/>
	<stop offset="0.8854" style="stop-color:#0495E7"/>
</linearGradient>
<path class="st30" d="M120.6,1799h-1.3v4.7h1.3V1799z"/>
<g>
	
		<linearGradient id="SVGID_27_" gradientUnits="userSpaceOnUse" x1="118.1313" y1="1799.2452" x2="123.8701" y2="1799.3798" gradientTransform="matrix(1 0 0 1 0 2)">
		<stop offset="0" style="stop-color:#0338D1"/>
		<stop offset="0.383" style="stop-color:#1CFCFC"/>
		<stop offset="0.6239" style="stop-color:#36FCFC"/>
		<stop offset="0.8854" style="stop-color:#0495E7"/>
	</linearGradient>
	<path class="st31" d="M123.3,1799h-1.3v4.7h1.3V1799z"/>
</g>
<linearGradient id="SVGID_28_" gradientUnits="userSpaceOnUse" x1="120.7993" y1="1799.2445" x2="126.5381" y2="1799.379" gradientTransform="matrix(1 0 0 1 0 2)">
	<stop offset="0" style="stop-color:#0338D1"/>
	<stop offset="0.383" style="stop-color:#1CFCFC"/>
	<stop offset="0.6239" style="stop-color:#36FCFC"/>
	<stop offset="0.8854" style="stop-color:#0495E7"/>
</linearGradient>
<path class="st32" d="M125.9,1799h-1.3v4.7h1.3V1799z"/>
<linearGradient id="SVGID_29_" gradientUnits="userSpaceOnUse" x1="101.3596" y1="1778.7688" x2="126.7979" y2="1811.467" gradientTransform="matrix(1 0 0 1 0 2)">
	<stop offset="0" style="stop-color:#0338D1"/>
	<stop offset="0.383" style="stop-color:#1CFCFC"/>
	<stop offset="0.6239" style="stop-color:#36FCFC"/>
	<stop offset="0.8854" style="stop-color:#0495E7"/>
</linearGradient>
<path class="st33" d="M128.6,1806.9h-14.7c-0.3,0-0.5-0.2-0.5-0.5s0.2-0.5,0.5-0.5h14.7c0.3,0,0.5,0.2,0.5,0.5  S128.9,1806.9,128.6,1806.9z"/>
<linearGradient id="SVGID_30_" gradientUnits="userSpaceOnUse" x1="77.7246" y1="1786.5369" x2="133.261" y2="1796.7648" gradientTransform="matrix(1 0 0 1 0 2)">
	<stop offset="0" style="stop-color:#0338D1"/>
	<stop offset="0.383" style="stop-color:#1CFCFC"/>
	<stop offset="0.6239" style="stop-color:#36FCFC"/>
	<stop offset="0.8854" style="stop-color:#0495E7"/>
</linearGradient>
<path class="st34" d="M127.6,1795.5l-6-2.4c-0.1-0.1-0.4-0.1-0.5,0l-6,2.4c-0.2,0.1-0.4,0.4-0.4,0.6v2.2c0,0.4,0.3,0.7,0.7,0.7h12  c0.4,0,0.7-0.3,0.7-0.7v-2.2C127.9,1795.9,127.8,1795.6,127.6,1795.5z M121.3,1797.4c-0.6,0-1-0.4-1-1s0.4-1,1-1c0.6,0,1,0.4,1,1  S121.9,1797.4,121.3,1797.4z"/>
<path class="st9" d="M129.9,1900.3v10c0,3-1.5,5-5,5h-8c-3.5,0-5-2-5-5v-10c0-3,1.5-5,5-5h8C128.4,1895.3,129.9,1897.3,129.9,1900.3  z"/>
<path class="st9" d="M123.4,1897.8v2c0,1.1,0.9,2,2,2h2"/>
<path class="st9" d="M116.9,1906.3h4"/>
<path class="st9" d="M116.9,1910.3h8"/>
<linearGradient id="SVGID_31_" gradientUnits="userSpaceOnUse" x1="111.5145" y1="136.2837" x2="130.9626" y2="132.7021" gradientTransform="matrix(1 0 0 -1 0 2140)">
	<stop offset="0" style="stop-color:#0338D1"/>
	<stop offset="0.383" style="stop-color:#1CFCFC"/>
	<stop offset="0.6239" style="stop-color:#36FCFC"/>
	<stop offset="0.8854" style="stop-color:#0495E7"/>
</linearGradient>
<path class="st35" d="M130.2,2000.5v10c0,3-1.5,5-5,5h-8c-3.5,0-5-2-5-5v-10c0-3,1.5-5,5-5h8  C128.7,1995.5,130.2,1997.5,130.2,2000.5z" style="stroke:transparent"/>
<path class="st9" d="M123.7,1998v2c0,1.1,0.9,2,2,2h2"/>
<path class="st9" d="M117.2,2006.5h4"/>
<path class="st9" d="M117.2,2010.5h8"/>
</svg>