<?xml version="1.0" encoding="utf-8"?>
<!-- Generator: Adobe Illustrator 24.1.1, SVG Export Plug-In . SVG Version: 6.00 Build 0)  -->
<svg version="1.1" id="Layer_1" xmlns="http://www.w3.org/2000/svg" xmlns:xlink="http://www.w3.org/1999/xlink" x="0px" y="0px"
	 viewBox="0 0 112 328.1" style="enable-background:new 0 0 112 328.1;" xml:space="preserve">
<style type="text/css">
	.st0{fill:#FFFFFF;}
	.st1{fill-rule:evenodd;clip-rule:evenodd;fill:#FFFFFF;}
</style>
<g>
	<path class="st0" d="M62.5,37.3c-1.2-0.5-2.4-0.9-3.7-1.1c0,0,0,0-0.1,0c-0.2,0.3-0.3,0.7-0.5,0.9c-1.4-0.2-2.8-0.2-4.1,0
		c-0.1-0.3-0.3-0.7-0.5-0.9c0,0,0,0-0.1,0c-1.3,0.2-2.5,0.6-3.7,1.1c0,0,0,0,0,0c-2.3,3.5-3,6.9-2.7,10.3c0,0,0,0,0,0
		c1.5,1.1,3,1.8,4.5,2.3c0,0,0,0,0.1,0c0.3-0.5,0.7-1,0.9-1.5c0,0,0-0.1,0-0.1c-0.5-0.2-1-0.4-1.4-0.7c0,0,0-0.1,0-0.1
		c0.1-0.1,0.2-0.1,0.3-0.2c0,0,0,0,0.1,0c3,1.3,6.2,1.3,9.1,0c0,0,0,0,0.1,0c0.1,0.1,0.2,0.1,0.3,0.2c0,0,0,0.1,0,0.1
		c-0.5,0.3-0.9,0.5-1.4,0.7c0,0,0,0,0,0.1c0.3,0.5,0.6,1,0.9,1.5c0,0,0,0,0.1,0c1.5-0.5,3-1.1,4.5-2.3c0,0,0,0,0,0
		C65.5,43.7,64.5,40.3,62.5,37.3C62.5,37.3,62.5,37.3,62.5,37.3z M53.2,45.5c-0.9,0-1.6-0.8-1.6-1.8c0-1,0.7-1.8,1.6-1.8
		c0.9,0,1.6,0.8,1.6,1.8C54.8,44.7,54.1,45.5,53.2,45.5z M59.2,45.5c-0.9,0-1.6-0.8-1.6-1.8c0-1,0.7-1.8,1.6-1.8
		c0.9,0,1.6,0.8,1.6,1.8C60.8,44.7,60.1,45.5,59.2,45.5z"/>
</g>
<g>
	<path class="st0" d="M63.5,116.7c0,0.2,0,0.3,0,0.5c0,5.1-3.8,11-10.6,11v0c-2,0-4-0.6-5.7-1.7c0.3,0,0.6,0.1,0.9,0.1
		c1.7,0,3.3-0.6,4.6-1.7c-1.6,0-3-1.1-3.5-2.7c0.6,0.1,1.1,0.1,1.7-0.1c-1.7-0.4-3-1.9-3-3.8c0,0,0,0,0,0c0.5,0.3,1.1,0.5,1.7,0.5
		c-1.6-1.1-2.1-3.4-1.2-5.1c1.9,2.4,4.7,3.9,7.7,4c-0.3-1.3,0.1-2.7,1.1-3.7c1.5-1.5,3.9-1.4,5.3,0.2c0.8-0.2,1.6-0.5,2.4-0.9
		c-0.3,0.9-0.9,1.6-1.6,2.1c0.7-0.1,1.5-0.3,2.1-0.6C64.8,115.5,64.2,116.1,63.5,116.7z"/>
</g>
<g>
	<path class="st1" d="M63.8,181.8c0.8,0.2,1.5,0.9,1.7,1.7c0.4,1.5,0.4,4.7,0.4,4.7s0,3.2-0.4,4.7c-0.2,0.8-0.9,1.5-1.7,1.7
		c-1.5,0.4-7.6,0.4-7.6,0.4s-6.1,0-7.6-0.4c-0.8-0.2-1.5-0.9-1.7-1.7c-0.4-1.5-0.4-4.7-0.4-4.7s0-3.2,0.4-4.7
		c0.2-0.8,0.9-1.5,1.7-1.7c1.5-0.4,7.6-0.4,7.6-0.4S62.3,181.4,63.8,181.8z M59.3,188.2l-5.1,2.9v-5.9L59.3,188.2z"/>
</g>
<g>
	<path class="st1" d="M66.7,267.2c0,5.8-4.7,10.4-10.4,10.4c-5.8,0-10.4-4.7-10.4-10.4c0-5.8,4.7-10.4,10.4-10.4
		C62,256.8,66.7,261.5,66.7,267.2z M56.6,264.5c-1,0.4-3,1.3-6.1,2.6c-0.5,0.2-0.8,0.4-0.8,0.6c0,0.3,0.4,0.4,0.9,0.6
		c0.1,0,0.2,0,0.2,0.1c0.5,0.2,1.3,0.4,1.6,0.4c0.3,0,0.7-0.1,1.1-0.4c2.8-1.9,4.3-2.9,4.4-2.9c0.1,0,0.2,0,0.2,0
		c0.1,0.1,0.1,0.2,0,0.2c0,0.2-1.6,1.6-2.4,2.4c-0.3,0.2-0.4,0.4-0.5,0.4c-0.1,0.1-0.2,0.2-0.2,0.2c-0.5,0.5-0.9,0.8,0,1.4
		c0.4,0.3,0.8,0.5,1.1,0.7c0.4,0.3,0.7,0.5,1.2,0.8c0.1,0.1,0.2,0.2,0.4,0.2c0.4,0.3,0.8,0.6,1.3,0.5c0.3,0,0.6-0.3,0.7-1.1
		c0.3-1.9,1-5.9,1.2-7.5c0-0.1,0-0.3,0-0.4s0-0.2-0.1-0.3c-0.1-0.1-0.3-0.1-0.4-0.1C60.1,263.1,59.5,263.3,56.6,264.5z"/>
</g>
</svg>
