<svg width="33" height="31" viewBox="0 0 33 31" fill="none" xmlns="http://www.w3.org/2000/svg">
<path d="M25.9648 16.1466C25.6915 16.1466 25.4648 16.3733 25.4648 16.6466C25.4648 18.6199 24.0915 20.2733 22.2448 20.7066L22.4248 20.4066C22.5648 20.1666 22.4915 19.8599 22.2515 19.7199C22.0181 19.5799 21.7048 19.6533 21.5648 19.8933L20.8648 21.0599C20.7715 21.2133 20.7715 21.4066 20.8581 21.5599C20.9448 21.7199 21.1115 21.8133 21.2915 21.8133C24.1381 21.8133 26.4581 19.4933 26.4581 16.6466C26.4648 16.3733 26.2381 16.1466 25.9648 16.1466Z" fill="url(#paint0_linear_1279_1569)"/>
<path d="M15.9645 6.14661C13.1179 6.14661 10.7979 8.46661 10.7979 11.3133C10.7979 11.5866 11.0245 11.8133 11.2979 11.8133C11.5712 11.8133 11.7979 11.5866 11.7979 11.3133C11.7979 9.33994 13.1712 7.68661 15.0179 7.25327L14.8379 7.55327C14.6979 7.79327 14.7712 8.09994 15.0112 8.23994C15.2445 8.37994 15.5579 8.30661 15.6979 8.06661L16.3979 6.89994C16.4845 6.74661 16.4912 6.55994 16.3979 6.39994C16.3112 6.24661 16.1445 6.14661 15.9645 6.14661Z" fill="url(#paint1_linear_1279_1569)"/>
<path d="M24.9643 11.78C24.9643 13.8333 23.471 15.5266 21.5177 15.84C21.5177 15.8333 21.5177 15.8333 21.5177 15.8266C21.3243 13.34 19.311 11.3133 16.791 11.1133C17.1043 9.15996 18.7977 7.66663 20.851 7.66663C23.1243 7.66663 24.9643 9.50663 24.9643 11.78Z" fill="url(#paint2_linear_1279_1569)"/>
<g filter="url(#filter0_d_1279_1569)">
<path d="M17.1706 15.4667C17.1706 15.3667 17.0573 15.2134 16.9173 15.2134H15.5439V15.7134H16.9173C17.0573 15.72 17.1706 15.6067 17.1706 15.4667Z" fill="url(#paint3_linear_1279_1569)"/>
</g>
<path d="M17.1839 16.72H16.9173H15.5439V17.22H17.1906C17.4039 17.22 17.5506 17.0866 17.5506 16.9666C17.5506 16.8466 17.3973 16.72 17.1839 16.72Z" fill="url(#paint4_linear_1279_1569)"/>
<path d="M20.8509 15.8C20.6975 13.78 19.0842 12.1667 17.0642 12.0133C16.9575 12.0067 16.8575 12 16.7442 12C14.4709 12 12.6309 13.84 12.6309 16.12C12.6309 18.3933 14.4709 20.2333 16.7442 20.2333C19.0175 20.2333 20.8642 18.3933 20.8642 16.12C20.8642 16.0067 20.8575 15.9067 20.8509 15.8Z" fill="url(#paint5_linear_1279_1569)"/>
<path d="M16.1487 16.0505L15.8017 15.6885L16.9321 14.5084L18.0637 15.6885L17.7167 16.0505L16.9321 15.2323L16.1487 16.0505ZM19.2149 16.9821L16.986 19.3092C16.9787 19.3168 16.9713 19.3219 16.9615 19.327C16.9529 19.3308 16.9419 19.3334 16.9321 19.3334C16.9223 19.3334 16.9125 19.3308 16.9027 19.327C16.8941 19.3232 16.8855 19.3168 16.8781 19.3092L14.6492 16.9821C14.637 16.9693 14.6309 16.9527 14.6309 16.9362C14.6309 16.9183 14.637 16.9018 14.6492 16.8903L15.223 16.2926L14.6897 15.7357C14.6824 15.728 14.6774 15.7191 14.6725 15.7102C14.6689 15.7 14.6664 15.6898 14.6664 15.6796C14.6664 15.6694 14.6689 15.6592 14.6725 15.649C14.6762 15.6388 14.6824 15.6312 14.6897 15.6235L16.8475 13.3703C16.8585 13.3589 16.872 13.3499 16.8855 13.3436C16.9002 13.3372 16.9149 13.3334 16.9309 13.3334C16.9468 13.3334 16.9615 13.3372 16.9762 13.3436C16.9909 13.3499 17.0044 13.3589 17.0142 13.3703L19.1818 15.6337C19.1879 15.6401 19.1929 15.6465 19.1953 15.6554C19.199 15.663 19.2002 15.6719 19.2002 15.6809C19.2002 15.6898 19.199 15.6974 19.1953 15.7064C19.1916 15.714 19.1879 15.7216 19.1818 15.728L18.6399 16.2939L19.2125 16.8916C19.2247 16.9043 19.2309 16.9209 19.2309 16.9375C19.2309 16.954 19.226 16.9706 19.2149 16.9821ZM15.57 15.9294L15.711 16.0772L16.8794 17.2968C16.8867 17.3045 16.8941 17.3096 16.9039 17.3147C16.9125 17.3185 16.9235 17.3211 16.9333 17.3211C16.9431 17.3211 16.9529 17.3185 16.9627 17.3147C16.9713 17.3109 16.9799 17.3045 16.9873 17.2968L18.4818 15.7369C18.4891 15.7293 18.494 15.7204 18.4989 15.7115C18.5026 15.7013 18.5051 15.6911 18.5051 15.6809C18.5051 15.6707 18.5026 15.6605 18.4989 15.6503C18.4953 15.6401 18.4891 15.6324 18.4818 15.6248L16.9848 14.0636C16.9774 14.056 16.9701 14.0509 16.9603 14.0458C16.9517 14.042 16.9407 14.0394 16.9309 14.0394C16.9211 14.0394 16.9112 14.042 16.9014 14.0458C16.8929 14.0496 16.8843 14.056 16.8769 14.0636L15.3836 15.6235C15.3763 15.6312 15.3714 15.6401 15.3665 15.649C15.3628 15.6592 15.3603 15.6694 15.3603 15.6796C15.3603 15.6898 15.3628 15.7 15.3665 15.7102C15.3701 15.7204 15.3763 15.728 15.3836 15.7357L15.57 15.9294ZM18.5112 16.8801L18.2954 16.6545L16.9774 18.0309C16.9713 18.0373 16.9652 18.0424 16.9566 18.0449C16.9492 18.0488 16.9407 18.05 16.9321 18.05C16.9235 18.05 16.9161 18.0488 16.9076 18.0449C16.9002 18.0411 16.8929 18.0373 16.8867 18.0309L15.5688 16.6545L15.353 16.8801C15.3456 16.8877 15.3407 16.8967 15.3358 16.9056C15.3321 16.9158 15.3297 16.926 15.3297 16.9362C15.3297 16.9464 15.3321 16.9566 15.3358 16.9668C15.3395 16.977 15.3456 16.9846 15.353 16.9923L16.8879 18.5942C16.8941 18.6006 16.9002 18.6057 16.9088 18.6082C16.9161 18.612 16.9247 18.6133 16.9333 18.6133C16.9419 18.6133 16.9492 18.612 16.9578 18.6082C16.9652 18.6044 16.9725 18.6006 16.9787 18.5942L18.5124 16.9923C18.5198 16.9846 18.5247 16.9757 18.5296 16.9668C18.5333 16.9566 18.5357 16.9464 18.5357 16.9362C18.5357 16.926 18.5333 16.9158 18.5296 16.9056C18.5234 16.8967 18.5185 16.8877 18.5112 16.8801ZM16.3804 16.2926L16.7273 16.6545L16.9321 16.4417L17.1368 16.6558L17.4838 16.2926L16.9321 15.7166L16.3804 16.2926Z" fill="white"/>
<defs>
<filter id="filter0_d_1279_1569" x="0.543945" y="0.213379" width="31.627" height="30.5002" filterUnits="userSpaceOnUse" color-interpolation-filters="sRGB">
<feFlood flood-opacity="0" result="BackgroundImageFix"/>
<feColorMatrix in="SourceAlpha" type="matrix" values="0 0 0 0 0 0 0 0 0 0 0 0 0 0 0 0 0 0 127 0" result="hardAlpha"/>
<feOffset/>
<feGaussianBlur stdDeviation="7.5"/>
<feColorMatrix type="matrix" values="0 0 0 0 0.0745098 0 0 0 0 0.713726 0 0 0 0 0.92549 0 0 0 1 0"/>
<feBlend mode="normal" in2="BackgroundImageFix" result="effect1_dropShadow_1279_1569"/>
<feBlend mode="normal" in="SourceGraphic" in2="effect1_dropShadow_1279_1569" result="shape"/>
</filter>
<linearGradient id="paint0_linear_1279_1569" x1="5.80582" y1="3.42203" x2="30.0363" y2="5.40923" gradientUnits="userSpaceOnUse">
<stop stop-color="#0338D1"/>
<stop offset="0.38297" stop-color="#1CFCFC"/>
<stop offset="0.6239" stop-color="#36FCFC"/>
<stop offset="0.885417" stop-color="#0495E7"/>
</linearGradient>
<linearGradient id="paint1_linear_1279_1569" x1="-4.19871" y1="-6.57798" x2="20.0452" y2="-4.58855" gradientUnits="userSpaceOnUse">
<stop stop-color="#0338D1"/>
<stop offset="0.38297" stop-color="#1CFCFC"/>
<stop offset="0.6239" stop-color="#36FCFC"/>
<stop offset="0.885417" stop-color="#0495E7"/>
</linearGradient>
<linearGradient id="paint2_linear_1279_1569" x1="-4.83605" y1="-10.6867" x2="30.127" y2="-7.81812" gradientUnits="userSpaceOnUse">
<stop stop-color="#0338D1"/>
<stop offset="0.38297" stop-color="#1CFCFC"/>
<stop offset="0.6239" stop-color="#36FCFC"/>
<stop offset="0.885417" stop-color="#0495E7"/>
</linearGradient>
<linearGradient id="paint3_linear_1279_1569" x1="11.2397" y1="14.09" x2="17.7795" y2="15.8346" gradientUnits="userSpaceOnUse">
<stop stop-color="#0338D1"/>
<stop offset="0.38297" stop-color="#1CFCFC"/>
<stop offset="0.6239" stop-color="#36FCFC"/>
<stop offset="0.885417" stop-color="#0495E7"/>
</linearGradient>
<linearGradient id="paint4_linear_1279_1569" x1="10.2342" y1="15.5972" x2="18.0306" y2="18.1644" gradientUnits="userSpaceOnUse">
<stop stop-color="#0338D1"/>
<stop offset="0.38297" stop-color="#1CFCFC"/>
<stop offset="0.6239" stop-color="#36FCFC"/>
<stop offset="0.885417" stop-color="#0495E7"/>
</linearGradient>
<linearGradient id="paint5_linear_1279_1569" x1="-9.15497" y1="-6.48807" x2="26.0648" y2="-3.59842" gradientUnits="userSpaceOnUse">
<stop stop-color="#0338D1"/>
<stop offset="0.38297" stop-color="#1CFCFC"/>
<stop offset="0.6239" stop-color="#36FCFC"/>
<stop offset="0.885417" stop-color="#0495E7"/>
</linearGradient>
</defs>
</svg>
