<svg width="24" height="24" viewBox="0 0 24 24" fill="none" xmlns="http://www.w3.org/2000/svg">
<path d="M23.001 15.97C23.001 19.84 19.871 22.97 16.001 22.97L17.051 21.22" stroke="white" stroke-width="1.5" stroke-linecap="round" stroke-linejoin="round"/>
<path d="M1.00098 7.96997C1.00098 4.09997 4.13098 0.969971 8.00098 0.969971L6.95098 2.71997" stroke="white" stroke-width="1.5" stroke-linecap="round" stroke-linejoin="round"/>
<path d="M14.8507 15.33C14.8507 18.74 12.0907 21.4999 8.68074 21.4999C5.27074 21.4999 2.51074 18.74 2.51074 15.33C2.51074 11.92 5.27074 9.15991 8.68074 9.15991C8.84074 9.15991 8.99074 9.16993 9.16074 9.17993C12.1907 9.40993 14.6107 11.8299 14.8407 14.8599C14.8407 15.0099 14.8507 15.16 14.8507 15.33Z" stroke="white" stroke-width="1.5" stroke-miterlimit="10" stroke-linecap="round" stroke-linejoin="round"/>
<path d="M7.27768 15.0756L6.75724 14.5327L8.45282 12.7625L10.1502 14.5327L9.62979 15.0756L8.45282 13.8483L7.27768 15.0756ZM11.8771 16.473L8.53373 19.9637C8.5227 19.9751 8.51166 19.9828 8.49695 19.9904C8.48408 19.9962 8.46753 20 8.45282 20C8.4381 20 8.42339 19.9962 8.40868 19.9904C8.39581 19.9847 8.38293 19.9751 8.3719 19.9637L5.02856 16.473C5.01017 16.4539 5.00098 16.4291 5.00098 16.4042C5.00098 16.3774 5.01017 16.3526 5.02856 16.3354L5.88922 15.4388L5.08925 14.6034C5.07822 14.592 5.07086 14.5786 5.0635 14.5652C5.05799 14.5499 5.05431 14.5346 5.05431 14.5193C5.05431 14.504 5.05799 14.4887 5.0635 14.4734C5.06902 14.4582 5.07822 14.4467 5.08925 14.4352L8.32592 11.0554C8.34247 11.0382 8.3627 11.0249 8.38293 11.0153C8.405 11.0057 8.42707 11 8.45098 11C8.47488 11 8.49695 11.0057 8.51902 11.0153C8.54109 11.0249 8.56132 11.0382 8.57603 11.0554L11.8274 14.4505C11.8366 14.4601 11.844 14.4696 11.8476 14.483C11.8532 14.4945 11.855 14.5079 11.855 14.5212C11.855 14.5346 11.8532 14.5461 11.8476 14.5595C11.8421 14.5709 11.8366 14.5824 11.8274 14.592L11.0146 15.4407L11.8734 16.3373C11.8918 16.3564 11.901 16.3813 11.901 16.4061C11.901 16.431 11.8936 16.4558 11.8771 16.473ZM6.40967 14.894L6.62115 15.1158L8.37374 16.9452C8.38477 16.9567 8.39581 16.9643 8.41052 16.972C8.42339 16.9777 8.43994 16.9815 8.45465 16.9815C8.46937 16.9815 8.48408 16.9777 8.49879 16.972C8.51166 16.9662 8.52454 16.9567 8.53557 16.9452L10.7773 14.6054C10.7884 14.5939 10.7957 14.5805 10.8031 14.5671C10.8086 14.5518 10.8123 14.5365 10.8123 14.5212C10.8123 14.5059 10.8086 14.4907 10.8031 14.4754C10.7976 14.4601 10.7884 14.4486 10.7773 14.4371L8.53189 12.0954C8.52086 12.0839 8.50982 12.0763 8.49511 12.0686C8.48224 12.0629 8.46569 12.059 8.45098 12.059C8.43626 12.059 8.42155 12.0629 8.40684 12.0686C8.39397 12.0743 8.38109 12.0839 8.37006 12.0954L6.13013 14.4352C6.1191 14.4467 6.11174 14.4601 6.10439 14.4734C6.09887 14.4887 6.09519 14.504 6.09519 14.5193C6.09519 14.5346 6.09887 14.5499 6.10439 14.5652C6.10991 14.5805 6.1191 14.592 6.13013 14.6034L6.40967 14.894ZM10.8215 16.3201L10.4978 15.9817L8.52086 18.0463C8.51166 18.0559 8.50247 18.0635 8.4896 18.0673C8.47856 18.0731 8.46569 18.075 8.45282 18.075C8.43994 18.075 8.42891 18.0731 8.41603 18.0673C8.405 18.0616 8.39397 18.0559 8.38477 18.0463L6.40783 15.9817L6.08416 16.3201C6.07312 16.3316 6.06577 16.3449 6.05841 16.3583C6.0529 16.3736 6.04922 16.3889 6.04922 16.4042C6.04922 16.4195 6.0529 16.4348 6.05841 16.4501C6.06393 16.4654 6.07312 16.4768 6.08416 16.4883L8.38661 18.8912C8.39581 18.9008 8.405 18.9085 8.41787 18.9123C8.42891 18.918 8.44178 18.9199 8.45465 18.9199C8.46753 18.9199 8.47856 18.918 8.49143 18.9123C8.50247 18.9065 8.5135 18.9008 8.5227 18.8912L10.8233 16.4883C10.8343 16.4768 10.8417 16.4635 10.8491 16.4501C10.8546 16.4348 10.8583 16.4195 10.8583 16.4042C10.8583 16.3889 10.8546 16.3736 10.8491 16.3583C10.8399 16.3449 10.8325 16.3316 10.8215 16.3201ZM7.62526 15.4388L8.1457 15.9817L8.45282 15.6625L8.75993 15.9836L9.28037 15.4388L8.45282 14.5748L7.62526 15.4388Z" fill="white"/>
<path d="M21.5011 8.66998C21.5011 12.08 18.7411 14.84 15.3311 14.84H14.8411C14.6111 11.81 12.1911 9.38997 9.16113 9.15997V8.66998C9.16113 5.25998 11.9211 2.5 15.3311 2.5C18.7411 2.5 21.5011 5.25998 21.5011 8.66998Z" stroke="white" stroke-width="1.5" stroke-miterlimit="10" stroke-linecap="round" stroke-linejoin="round"/>
</svg>
