<svg width="32" height="32" viewBox="0 0 32 32" fill="none" xmlns="http://www.w3.org/2000/svg">
<g filter="url(#filter0_b_1445_4653)">
<circle cx="16" cy="16" r="16" fill="url(#paint0_radial_1445_4653)" fill-opacity="0.4"/>
<circle cx="16" cy="16" r="15.5" stroke="url(#paint1_radial_1445_4653)"/>
<circle cx="16" cy="16" r="15.5" stroke="url(#paint2_radial_1445_4653)"/>
</g>
<g filter="url(#filter1_di_1445_4653)">
<path fill-rule="evenodd" clip-rule="evenodd" d="M26.4461 15.9999C26.4461 21.7691 21.7693 26.4459 16.0002 26.4459C10.231 26.4459 5.5542 21.7691 5.5542 15.9999C5.5542 10.2308 10.231 5.55396 16.0002 5.55396C21.7693 5.55396 26.4461 10.2308 26.4461 15.9999ZM16.3745 13.2656C15.3585 13.6882 13.3278 14.5629 10.2826 15.8896C9.78814 16.0863 9.5291 16.2787 9.50552 16.4668C9.46567 16.7847 9.86377 16.9099 10.4059 17.0803C10.4796 17.1035 10.556 17.1275 10.6344 17.153C11.1677 17.3264 11.8852 17.5292 12.2581 17.5372C12.5965 17.5446 12.9741 17.4051 13.391 17.1188C16.2362 15.1982 17.7049 14.2274 17.7971 14.2065C17.8622 14.1917 17.9523 14.1732 18.0134 14.2275C18.0745 14.2817 18.0685 14.3846 18.062 14.4121C18.0226 14.5803 16.4599 16.0331 15.6512 16.7849C15.3991 17.0193 15.2202 17.1856 15.1837 17.2235C15.1018 17.3086 15.0183 17.389 14.9381 17.4664C14.4426 17.944 14.0711 18.3022 14.9587 18.8872C15.3852 19.1683 15.7266 19.4007 16.0671 19.6326C16.439 19.8859 16.8099 20.1385 17.2899 20.4531C17.4122 20.5332 17.5289 20.6165 17.6427 20.6976C18.0755 21.0061 18.4643 21.2833 18.9447 21.2391C19.2238 21.2134 19.5121 20.951 19.6586 20.1682C20.0046 18.3182 20.6848 14.3098 20.842 12.6581C20.8558 12.5133 20.8385 12.3281 20.8246 12.2468C20.8107 12.1655 20.7816 12.0497 20.6759 11.9639C20.5508 11.8624 20.3575 11.841 20.2711 11.8425C19.8782 11.8494 19.2754 12.059 16.3745 13.2656Z" fill="white"/>
</g>
<defs>
<filter id="filter0_b_1445_4653" x="-5" y="-5" width="42" height="42" filterUnits="userSpaceOnUse" color-interpolation-filters="sRGB">
<feFlood flood-opacity="0" result="BackgroundImageFix"/>
<feGaussianBlur in="BackgroundImage" stdDeviation="2.5"/>
<feComposite in2="SourceAlpha" operator="in" result="effect1_backgroundBlur_1445_4653"/>
<feBlend mode="normal" in="SourceGraphic" in2="effect1_backgroundBlur_1445_4653" result="shape"/>
</filter>
<filter id="filter1_di_1445_4653" x="0.554199" y="0.553955" width="30.8921" height="30.892" filterUnits="userSpaceOnUse" color-interpolation-filters="sRGB">
<feFlood flood-opacity="0" result="BackgroundImageFix"/>
<feColorMatrix in="SourceAlpha" type="matrix" values="0 0 0 0 0 0 0 0 0 0 0 0 0 0 0 0 0 0 127 0" result="hardAlpha"/>
<feOffset/>
<feGaussianBlur stdDeviation="2.5"/>
<feComposite in2="hardAlpha" operator="out"/>
<feColorMatrix type="matrix" values="0 0 0 0 0.164706 0 0 0 0 0.670588 0 0 0 0 0.933333 0 0 0 0.55 0"/>
<feBlend mode="normal" in2="BackgroundImageFix" result="effect1_dropShadow_1445_4653"/>
<feBlend mode="normal" in="SourceGraphic" in2="effect1_dropShadow_1445_4653" result="shape"/>
<feColorMatrix in="SourceAlpha" type="matrix" values="0 0 0 0 0 0 0 0 0 0 0 0 0 0 0 0 0 0 127 0" result="hardAlpha"/>
<feOffset dx="1" dy="1"/>
<feGaussianBlur stdDeviation="1.5"/>
<feComposite in2="hardAlpha" operator="arithmetic" k2="-1" k3="1"/>
<feColorMatrix type="matrix" values="0 0 0 0 0.164706 0 0 0 0 0.670588 0 0 0 0 0.933333 0 0 0 0.3 0"/>
<feBlend mode="normal" in2="shape" result="effect2_innerShadow_1445_4653"/>
</filter>
<radialGradient id="paint0_radial_1445_4653" cx="0" cy="0" r="1" gradientUnits="userSpaceOnUse" gradientTransform="translate(2.67682) rotate(48.0195) scale(47.8414 34.7508)">
<stop stop-color="#2AABEE" stop-opacity="0.36"/>
<stop offset="1" stop-color="#2AABEE" stop-opacity="0"/>
</radialGradient>
<radialGradient id="paint1_radial_1445_4653" cx="0" cy="0" r="1" gradientUnits="userSpaceOnUse" gradientTransform="translate(-17.0386 3.27368) rotate(35.1112) scale(36.8924 21.7935)">
<stop stop-color="#2AABEE"/>
<stop offset="1" stop-color="white" stop-opacity="0.06"/>
</radialGradient>
<radialGradient id="paint2_radial_1445_4653" cx="0" cy="0" r="1" gradientUnits="userSpaceOnUse" gradientTransform="translate(41.3684 21.4163) rotate(161.34) scale(26.7443 18.1139)">
<stop stop-color="#2AABEE"/>
<stop offset="1" stop-color="#2AABEE" stop-opacity="0"/>
</radialGradient>
</defs>
</svg>
