<svg width="72" height="31" viewBox="0 0 72 31" fill="none" xmlns="http://www.w3.org/2000/svg">
<rect width="72" height="31" rx="15" fill="url(#paint0_linear_314_6306)"/>
<rect x="8" y="6.5" width="20" height="20" rx="10" fill="#000936"/>
<path d="M16.4947 15.9152L15.75 15.1674L18.1751 12.7317L20.6018 15.1682L19.857 15.9164L18.1751 14.2274L16.4947 15.9152ZM23.0722 17.8395L18.2896 22.6422C18.2747 22.6575 18.2568 22.6696 18.2371 22.6779C18.2174 22.6862 18.1963 22.6905 18.1749 22.6905C18.1535 22.6905 18.1324 22.6862 18.1127 22.6779C18.093 22.6696 18.0751 22.6575 18.0601 22.6422L13.2775 17.8395C13.2524 17.8142 13.2383 17.78 13.2383 17.7443C13.2383 17.7085 13.2524 17.6743 13.2775 17.649L14.509 16.4149L13.3659 15.2671C13.3506 15.252 13.3385 15.2341 13.3302 15.2143C13.3219 15.1944 13.3176 15.1731 13.3176 15.1516C13.3176 15.1301 13.3219 15.1088 13.3302 15.089C13.3385 15.0692 13.3506 15.0512 13.3659 15.0362L17.9954 10.3857C18.019 10.3616 18.0472 10.3424 18.0782 10.3294C18.1093 10.3163 18.1426 10.3096 18.1763 10.3096C18.21 10.3096 18.2433 10.3163 18.2743 10.3294C18.3054 10.3424 18.3335 10.3616 18.3571 10.3857L23.0059 15.056C23.0184 15.0685 23.0284 15.0834 23.0351 15.0998C23.0419 15.1161 23.0454 15.1337 23.0454 15.1514C23.0454 15.1692 23.0419 15.1867 23.0351 15.2031C23.0284 15.2195 23.0184 15.2344 23.0059 15.2469L21.8428 16.4149L23.0722 17.6494C23.0973 17.6747 23.1113 17.7088 23.1113 17.7445C23.1113 17.7801 23.0973 17.8142 23.0722 17.8395ZM15.2521 15.6666L15.5539 15.9709L18.0597 18.4869C18.0747 18.5022 18.0926 18.5143 18.1123 18.5226C18.132 18.5309 18.1531 18.5352 18.1745 18.5352C18.1959 18.5352 18.217 18.5309 18.2367 18.5226C18.2564 18.5143 18.2743 18.5022 18.2892 18.4869L21.496 15.2667C21.5113 15.2516 21.5235 15.2337 21.5318 15.2138C21.5401 15.194 21.5444 15.1727 21.5444 15.1512C21.5444 15.1297 21.5401 15.1084 21.5318 15.0886C21.5235 15.0688 21.5113 15.0508 21.496 15.0358L18.2892 11.816C18.2743 11.8007 18.2564 11.7885 18.2367 11.7802C18.217 11.7719 18.1959 11.7676 18.1745 11.7676C18.1531 11.7676 18.132 11.7719 18.1123 11.7802C18.0926 11.7885 18.0747 11.8007 18.0597 11.816L14.853 15.0358C14.8377 15.0508 14.8255 15.0688 14.8172 15.0886C14.8089 15.1084 14.8046 15.1297 14.8046 15.1512C14.8046 15.1727 14.8089 15.194 14.8172 15.2138C14.8255 15.2337 14.8377 15.2516 14.853 15.2667L15.2521 15.6666ZM21.5619 17.6288L21.1001 17.1627L18.2723 20.0023C18.2599 20.0149 18.2451 20.0248 18.2288 20.0316C18.2124 20.0384 18.195 20.0419 18.1773 20.0419C18.1596 20.0419 18.1422 20.0384 18.1258 20.0316C18.1095 20.0248 18.0947 20.0149 18.0822 20.0023L15.2541 17.1627L14.7899 17.6288C14.7746 17.6439 14.7624 17.6618 14.7541 17.6816C14.7458 17.7015 14.7415 17.7228 14.7415 17.7443C14.7415 17.7658 14.7458 17.7871 14.7541 17.8069C14.7624 17.8267 14.7746 17.8447 14.7899 17.8597L18.0822 21.1658C18.0947 21.1784 18.1095 21.1884 18.1258 21.1952C18.1422 21.202 18.1596 21.2055 18.1773 21.2055C18.195 21.2055 18.2124 21.202 18.2288 21.1952C18.2451 21.1884 18.2599 21.1784 18.2723 21.1658L21.5623 17.8597C21.5776 17.8447 21.5898 17.8267 21.5981 17.8069C21.6064 17.7871 21.6107 17.7658 21.6107 17.7443C21.6107 17.7228 21.6064 17.7015 21.5981 17.6816C21.5898 17.6618 21.5772 17.6439 21.5619 17.6288ZM16.9919 16.4149L17.737 17.1627L18.1751 16.7224L18.6148 17.1639L19.3599 16.4149L18.1751 15.2251L16.9919 16.4149Z" fill="url(#paint1_linear_314_6306)"/>
<path d="M36.804 12.016V13.648H34.5V20.5H32.436V13.648H30.156V12.016H36.804ZM49.2009 12.016L47.1729 20.5H44.6289L43.2729 14.824L41.9049 20.5H39.3609L37.3329 12.016H39.5649L40.6569 18.16L42.1449 12.016H44.3889L45.8769 18.16L46.9809 12.016H49.2009ZM52.3303 13.648V15.424H55.1983V16.972H52.3303V18.856H55.5583V20.5H50.2783V12.016H55.5583V13.648H52.3303ZM58.7756 17.524V20.5H56.7236V12.016H60.0476C61.0556 12.016 61.8236 12.268 62.3516 12.772C62.8796 13.268 63.1436 13.94 63.1436 14.788C63.1436 15.316 63.0236 15.788 62.7836 16.204C62.5516 16.612 62.2036 16.936 61.7396 17.176C61.2756 17.408 60.7116 17.524 60.0476 17.524H58.7756ZM59.8196 15.88C60.6436 15.88 61.0556 15.516 61.0556 14.788C61.0556 14.044 60.6436 13.672 59.8196 13.672H58.7756V15.88H59.8196Z" fill="#141416"/>
<defs>
<linearGradient id="paint0_linear_314_6306" x1="-190.516" y1="-69.6109" x2="108.687" y2="-12.5951" gradientUnits="userSpaceOnUse">
<stop stop-color="#0338D1"/>
<stop offset="0.38297" stop-color="#1CFCFC"/>
<stop offset="0.6239" stop-color="#36FCFC"/>
<stop offset="0.885417" stop-color="#0495E7"/>
</linearGradient>
<linearGradient id="paint1_linear_314_6306" x1="18.1748" y1="8.39607" x2="18.1748" y2="24.5396" gradientUnits="userSpaceOnUse">
<stop stop-color="#0338D1"/>
<stop offset="0.354167" stop-color="#1CFCFC"/>
<stop offset="0.885417" stop-color="#0338D1"/>
</linearGradient>
</defs>
</svg>
