<svg width="34" height="42" viewBox="0 0 34 42" fill="none" xmlns="http://www.w3.org/2000/svg">
<path d="M11.0469 19.0161L8.52059 16.4792L16.7472 8.21676L24.9792 16.4819L22.4529 19.0202L16.7472 13.2906L11.0469 19.0161ZM33.3598 25.5439L17.1357 41.8359C17.085 41.8879 17.0244 41.9291 16.9576 41.9573C16.8907 41.9855 16.819 42 16.7465 42C16.674 42 16.6023 41.9855 16.5354 41.9573C16.4686 41.9291 16.408 41.8879 16.3572 41.8359L0.133133 25.5439C0.0478804 25.4581 0 25.3419 0 25.2208C0 25.0996 0.0478804 24.9834 0.133133 24.8977L4.3105 20.711L0.433077 16.8173C0.381134 16.7663 0.339862 16.7054 0.311685 16.6382C0.283508 16.5709 0.268996 16.4987 0.268996 16.4258C0.268996 16.3528 0.283508 16.2806 0.311685 16.2134C0.339862 16.1461 0.381134 16.0852 0.433077 16.0342L16.1377 0.258295C16.2178 0.176498 16.3133 0.111535 16.4186 0.0671881C16.524 0.022841 16.637 0 16.7513 0C16.8655 0 16.9786 0.022841 17.0839 0.0671881C17.1892 0.111535 17.2847 0.176498 17.3648 0.258295L33.1349 16.1013C33.1773 16.1438 33.211 16.1942 33.2339 16.2498C33.2569 16.3054 33.2687 16.3649 33.2687 16.4251C33.2687 16.4853 33.2569 16.5448 33.2339 16.6004C33.211 16.6559 33.1773 16.7064 33.1349 16.7489L29.1893 20.711L33.3598 24.899C33.4447 24.9847 33.4923 25.1006 33.4923 25.2214C33.4923 25.3423 33.4447 25.4582 33.3598 25.5439ZM6.83137 18.1727L7.85527 19.205L16.3559 27.7399C16.4066 27.7918 16.4672 27.8331 16.5341 27.8613C16.6009 27.8894 16.6726 27.9039 16.7451 27.9039C16.8176 27.9039 16.8894 27.8894 16.9562 27.8613C17.023 27.8331 17.0836 27.7918 17.1344 27.7399L28.0127 16.816C28.0646 16.765 28.1059 16.7041 28.1341 16.6368C28.1623 16.5696 28.1768 16.4974 28.1768 16.4244C28.1768 16.3515 28.1623 16.2792 28.1341 16.212C28.1059 16.1448 28.0646 16.0839 28.0127 16.0329L17.1344 5.11032C17.0836 5.05837 17.023 5.0171 16.9562 4.98893C16.8894 4.96076 16.8176 4.94625 16.7451 4.94625C16.6726 4.94625 16.6009 4.96076 16.5341 4.98893C16.4672 5.0171 16.4066 5.05837 16.3559 5.11032L5.47755 16.0329C5.42561 16.0839 5.38433 16.1448 5.35616 16.212C5.32798 16.2792 5.31347 16.3515 5.31347 16.4244C5.31347 16.4974 5.32798 16.5696 5.35616 16.6368C5.38433 16.7041 5.42561 16.765 5.47755 16.816L6.83137 18.1727ZM28.2363 24.8292L26.6698 23.2479L17.0771 32.8808C17.0348 32.9234 16.9846 32.9572 16.9292 32.9802C16.8739 33.0033 16.8146 33.0151 16.7547 33.0151C16.6948 33.0151 16.6354 33.0033 16.5801 32.9802C16.5248 32.9572 16.4745 32.9234 16.4322 32.8808L6.83819 23.2479L5.2635 24.8292C5.21156 24.8802 5.17028 24.9411 5.14211 25.0084C5.11393 25.0756 5.09942 25.1478 5.09942 25.2208C5.09942 25.2937 5.11393 25.3659 5.14211 25.4332C5.17028 25.5004 5.21156 25.5613 5.2635 25.6123L16.4322 36.8278C16.4745 36.8704 16.5248 36.9042 16.5801 36.9273C16.6354 36.9503 16.6948 36.9622 16.7547 36.9622C16.8146 36.9622 16.8739 36.9503 16.9292 36.9273C16.9846 36.9042 17.0348 36.8704 17.0771 36.8278L28.2377 25.6123C28.2896 25.5613 28.3309 25.5004 28.3591 25.4332C28.3872 25.3659 28.4017 25.2937 28.4017 25.2208C28.4017 25.1478 28.3872 25.0756 28.3591 25.0084C28.3309 24.9411 28.2882 24.8802 28.2363 24.8292ZM12.7334 20.711L15.2611 23.2479L16.7472 21.7542L18.2387 23.252L20.7664 20.711L16.7472 16.6749L12.7334 20.711Z" fill="url(#paint0_linear_137_3193)"/>
<defs>
<linearGradient id="paint0_linear_137_3193" x1="16.7462" y1="-6.49118" x2="16.7462" y2="48.2725" gradientUnits="userSpaceOnUse">
<stop stop-color="#0338D1"/>
<stop offset="0.354167" stop-color="#1CFCFC"/>
<stop offset="0.885417" stop-color="#0338D1"/>
</linearGradient>
</defs>
</svg>
