<svg width="15" height="15" viewBox="0 0 15 15" fill="none" xmlns="http://www.w3.org/2000/svg">
<path fill-rule="evenodd" clip-rule="evenodd" d="M5.93389 1.49556C7.17034 1.2162 8.46397 1.34401 9.62184 1.85993C9.96262 2.01177 10.362 1.85861 10.5138 1.51783C10.6657 1.17705 10.5125 0.777705 10.1717 0.625863C8.74772 -0.00863133 7.15677 -0.165817 5.63614 0.177748C4.11552 0.521313 2.74669 1.34722 1.7338 2.5323C0.720917 3.71737 0.118245 5.19812 0.0156709 6.75369C-0.0869033 8.30927 0.316115 9.85633 1.16462 11.1641C2.01313 12.472 3.26166 13.4705 4.724 14.0107C6.18635 14.551 7.78416 14.6041 9.27914 14.162C10.7741 13.72 12.0862 12.8066 13.0196 11.558C13.953 10.3094 14.4578 8.79245 14.4587 7.2335V7.23311V6.63016C14.4587 6.25708 14.1563 5.95464 13.7832 5.95464C13.4101 5.95464 13.1077 6.25708 13.1077 6.63016V7.23272C13.107 8.50034 12.6965 9.73376 11.9375 10.749C11.1785 11.7643 10.1117 12.507 8.89608 12.8665C7.68048 13.2259 6.38127 13.1827 5.19221 12.7434C4.00314 12.3041 2.98794 11.4922 2.29801 10.4288C1.60807 9.3654 1.28037 8.10746 1.36377 6.84259C1.44718 5.57772 1.93722 4.3737 2.76082 3.41009C3.58441 2.44648 4.69744 1.77492 5.93389 1.49556ZM14.261 2.46781C14.5247 2.20388 14.5245 1.77616 14.2605 1.51249C13.9966 1.24882 13.5689 1.24903 13.3052 1.51297L7.22903 7.59523L5.74078 6.10697C5.47698 5.84317 5.04926 5.84317 4.78546 6.10697C4.52165 6.37078 4.52165 6.79849 4.78546 7.06229L6.75161 9.02845C6.87834 9.15517 7.05023 9.22635 7.22944 9.2263C7.40866 9.22626 7.58051 9.155 7.70717 9.02821L14.261 2.46781Z" fill="url(#paint0_linear_1481_5856)"/>
<defs>
<linearGradient id="paint0_linear_1481_5856" x1="7.22936" y1="-2.23462" x2="7.22936" y2="16.6181" gradientUnits="userSpaceOnUse">
<stop stop-color="#0338D1"/>
<stop offset="0.354167" stop-color="#1CFCFC"/>
<stop offset="0.885417" stop-color="#0338D1"/>
</linearGradient>
</defs>
</svg>
