<svg width="14" height="17" viewBox="0 0 14 17" fill="none" xmlns="http://www.w3.org/2000/svg">
<path d="M11.296 11.1823C10.46 11.1823 9.71694 11.5771 9.22918 12.1808L5.11872 9.53362C5.25803 9.20851 5.32769 8.88338 5.32769 8.51178C5.32769 8.23316 5.2812 7.95439 5.21154 7.6989L9.39162 5.00503C9.87938 5.51593 10.5528 5.84105 11.3191 5.84105C12.7822 5.84105 13.9896 4.65673 13.9896 3.17052C13.9896 1.68427 12.8053 0.5 11.3191 0.5C9.83289 0.5 8.64858 1.68431 8.64858 3.17052C8.64858 3.47247 8.69507 3.75109 8.78789 4.00654L4.60781 6.70041C4.12005 6.16633 3.4235 5.84121 2.65715 5.84121C1.19408 5.84121 0.00976562 7.04867 0.00976562 8.51174C0.00976562 9.9748 1.19408 11.1823 2.68029 11.1823C3.37701 11.1823 3.98072 10.9268 4.46848 10.4855L8.74145 13.2257C8.69495 13.4115 8.67179 13.6205 8.67179 13.8295C8.67179 15.2925 9.8561 16.5 11.3423 16.5C12.8287 16.5003 13.9434 15.2927 13.9434 13.8296C13.9434 12.3667 12.7591 11.1822 11.296 11.1822V11.1823ZM11.296 1.68427C12.132 1.68427 12.8054 2.35765 12.8054 3.19366C12.8054 4.02968 12.132 4.70305 11.296 4.70305C10.46 4.70305 9.7866 4.02968 9.7866 3.19366C9.7866 2.35781 10.46 1.68427 11.296 1.68427ZM2.65716 10.0212C1.82115 10.0212 1.14777 9.34784 1.14777 8.51182C1.14777 7.6758 1.82115 7.00243 2.65716 7.00243C3.49318 7.00243 4.16655 7.6758 4.16655 8.51182C4.16655 9.34784 3.49318 10.0212 2.65716 10.0212ZM11.296 15.3392C10.46 15.3392 9.7866 14.6658 9.7866 13.8298C9.7866 12.9938 10.46 12.3204 11.296 12.3204C12.132 12.3204 12.8054 12.9938 12.8054 13.8298C12.8054 14.6657 12.1088 15.3392 11.296 15.3392Z" fill="white"/>
</svg>
