<svg width="14" height="17" viewBox="0 0 14 17" fill="none" xmlns="http://www.w3.org/2000/svg">
<path d="M11.2862 11.1823C10.4502 11.1823 9.70717 11.5771 9.21941 12.1808L5.10896 9.53362C5.24827 9.20851 5.31792 8.88338 5.31792 8.51178C5.31792 8.23316 5.27143 7.95439 5.20178 7.6989L9.38186 5.00503C9.86962 5.51593 10.543 5.84105 11.3093 5.84105C12.7724 5.84105 13.9799 4.65673 13.9799 3.17052C13.9799 1.68427 12.7955 0.5 11.3093 0.5C9.82313 0.5 8.63881 1.68431 8.63881 3.17052C8.63881 3.47247 8.68531 3.75109 8.77813 4.00654L4.59805 6.70041C4.11029 6.16633 3.41373 5.84121 2.64738 5.84121C1.18431 5.84121 0 7.04867 0 8.51174C0 9.9748 1.18431 11.1823 2.67052 11.1823C3.36725 11.1823 3.97095 10.9268 4.45871 10.4855L8.73168 13.2257C8.68519 13.4115 8.66202 13.6205 8.66202 13.8295C8.66202 15.2925 9.84634 16.5 11.3325 16.5C12.819 16.5003 13.9336 15.2927 13.9336 13.8296C13.9336 12.3667 12.7493 11.1822 11.2862 11.1822V11.1823ZM11.2862 1.68427C12.1222 1.68427 12.7956 2.35765 12.7956 3.19366C12.7956 4.02968 12.1222 4.70305 11.2862 4.70305C10.4502 4.70305 9.77684 4.02968 9.77684 3.19366C9.77684 2.35781 10.4502 1.68427 11.2862 1.68427ZM2.6474 10.0212C1.81138 10.0212 1.13801 9.34784 1.13801 8.51182C1.13801 7.6758 1.81138 7.00243 2.6474 7.00243C3.48341 7.00243 4.15679 7.6758 4.15679 8.51182C4.15679 9.34784 3.48341 10.0212 2.6474 10.0212ZM11.2862 15.3392C10.4502 15.3392 9.77684 14.6658 9.77684 13.8298C9.77684 12.9938 10.4502 12.3204 11.2862 12.3204C12.1222 12.3204 12.7956 12.9938 12.7956 13.8298C12.7956 14.6657 12.0991 15.3392 11.2862 15.3392Z" fill="white"/>
</svg>
