<svg width="16" height="15" viewBox="0 0 16 15" fill="none" xmlns="http://www.w3.org/2000/svg">
<path d="M7.17668 1.13338C7.64335 0.740046 8.39668 0.740046 8.85001 1.13338L9.90335 2.03338C10.1033 2.20005 10.4833 2.34005 10.75 2.34005H11.8833C12.59 2.34005 13.17 2.92005 13.17 3.62671V4.76005C13.17 5.02671 13.31 5.40005 13.4767 5.60005L14.3767 6.65338C14.77 7.12005 14.77 7.87338 14.3767 8.32671L13.4767 9.38005C13.31 9.58005 13.17 9.95338 13.17 10.22V11.3534C13.17 12.06 12.59 12.64 11.8833 12.64H10.75C10.4833 12.64 10.11 12.78 9.91001 12.9467L8.85668 13.8467C8.39001 14.24 7.63668 14.24 7.18335 13.8467L6.13001 12.9467C5.93001 12.78 5.55001 12.64 5.29001 12.64H4.12335C3.41668 12.64 2.83668 12.06 2.83668 11.3534V10.2134C2.83668 9.95338 2.70335 9.57338 2.53668 9.38005L1.63668 8.32005C1.25001 7.86005 1.25001 7.11338 1.63668 6.65338L2.53668 5.59338C2.70335 5.39338 2.83668 5.02005 2.83668 4.76005V3.63338C2.83668 2.92671 3.41668 2.34671 4.12335 2.34671H5.27668C5.54335 2.34671 5.91668 2.20671 6.11668 2.04005L7.17668 1.13338Z" stroke="white" stroke-width="1.0625" stroke-linecap="round" stroke-linejoin="round"/>
</svg>
