<svg width="25" height="24" viewBox="0 0 25 24" fill="none" xmlns="http://www.w3.org/2000/svg">
<path d="M12.3719 2.15003L21.3719 5.75C21.7219 5.89 22.002 6.31 22.002 6.68V10C22.002 10.55 21.552 11 21.002 11H3.00195C2.45195 11 2.00195 10.55 2.00195 10V6.68C2.00195 6.31 2.28196 5.89 2.63196 5.75L11.632 2.15003C11.832 2.07003 12.1719 2.07003 12.3719 2.15003Z" stroke="white" stroke-width="1.5" stroke-miterlimit="10" stroke-linecap="round" stroke-linejoin="round"/>
<path d="M22.002 22H2.00195V19C2.00195 18.45 2.45195 18 3.00195 18H21.002C21.552 18 22.002 18.45 22.002 19V22Z" stroke="white" stroke-width="1.5" stroke-miterlimit="10" stroke-linecap="round" stroke-linejoin="round"/>
<path d="M4.00195 18V11" stroke="white" stroke-width="1.5" stroke-miterlimit="10" stroke-linecap="round" stroke-linejoin="round"/>
<path d="M8.00195 18V11" stroke="white" stroke-width="1.5" stroke-miterlimit="10" stroke-linecap="round" stroke-linejoin="round"/>
<path d="M12.002 18V11" stroke="white" stroke-width="1.5" stroke-miterlimit="10" stroke-linecap="round" stroke-linejoin="round"/>
<path d="M16.002 18V11" stroke="white" stroke-width="1.5" stroke-miterlimit="10" stroke-linecap="round" stroke-linejoin="round"/>
<path d="M20.002 18V11" stroke="white" stroke-width="1.5" stroke-miterlimit="10" stroke-linecap="round" stroke-linejoin="round"/>
<path d="M1.00195 22H23.002" stroke="white" stroke-width="1.5" stroke-miterlimit="10" stroke-linecap="round" stroke-linejoin="round"/>
<path d="M12.002 8.5C12.8304 8.5 13.502 7.82843 13.502 7C13.502 6.17157 12.8304 5.5 12.002 5.5C11.1735 5.5 10.502 6.17157 10.502 7C10.502 7.82843 11.1735 8.5 12.002 8.5Z" stroke="white" stroke-width="1.5" stroke-miterlimit="10" stroke-linecap="round" stroke-linejoin="round"/>
</svg>
