<svg width="25" height="24" viewBox="0 0 25 24" fill="none" xmlns="http://www.w3.org/2000/svg">
<path d="M16.192 2H7.81195C4.17195 2 2.00195 4.17 2.00195 7.81V16.18C2.00195 19.83 4.17195 22 7.81195 22H16.182C19.822 22 21.992 19.83 21.992 16.19V7.81C22.002 4.17 19.832 2 16.192 2ZM12.002 18.25C10.212 18.25 8.81195 17.36 7.86195 16.48V17.19C7.86195 17.6 7.52195 17.94 7.11195 17.94C6.70195 17.94 6.36195 17.6 6.36195 17.19V14.44C6.36195 14.03 6.70195 13.69 7.11195 13.69H9.59195C10.002 13.69 10.342 14.03 10.342 14.44C10.342 14.85 10.002 15.19 9.59195 15.19H8.69195C9.43195 15.93 10.582 16.75 12.002 16.75C14.622 16.75 16.752 14.62 16.752 12C16.752 11.59 17.092 11.25 17.502 11.25C17.912 11.25 18.252 11.59 18.252 12C18.252 15.45 15.452 18.25 12.002 18.25ZM18.252 9.54C18.252 9.57 18.252 9.6 18.252 9.62C18.242 9.73 18.212 9.83 18.162 9.92C18.112 10.01 18.042 10.09 17.952 10.16C17.882 10.21 17.802 10.25 17.712 10.28C17.642 10.3 17.572 10.31 17.502 10.31H15.072C14.662 10.31 14.322 9.97 14.322 9.56C14.322 9.15 14.662 8.81 15.072 8.81H15.902C15.102 8.07 13.812 7.25 12.022 7.25C9.40195 7.25 7.27195 9.38 7.27195 12C7.27195 12.41 6.93195 12.75 6.52195 12.75C6.11195 12.75 5.75195 12.41 5.75195 12C5.75195 8.55 8.55195 5.75 12.002 5.75C14.152 5.75 15.732 6.68 16.752 7.57V6.81C16.752 6.4 17.092 6.06 17.502 6.06C17.912 6.06 18.252 6.4 18.252 6.81V9.54Z" fill="url(#paint0_linear_1279_1050)"/>
<defs>
<linearGradient id="paint0_linear_1279_1050" x1="-50.8927" y1="-42.9103" x2="34.6192" y2="-35.8978" gradientUnits="userSpaceOnUse">
<stop stop-color="#0338D1"/>
<stop offset="0.38297" stop-color="#1CFCFC"/>
<stop offset="0.6239" stop-color="#36FCFC"/>
<stop offset="0.885417" stop-color="#0495E7"/>
</linearGradient>
</defs>
</svg>
