<svg width="17" height="16" viewBox="0 0 17 16" fill="none" xmlns="http://www.w3.org/2000/svg">
<path d="M10.5302 2.63337V5.1667H9.53021V2.63337C9.53021 2.45337 9.37021 2.3667 9.26354 2.3667C9.23021 2.3667 9.19688 2.37337 9.16354 2.3867L3.87687 4.38003C3.52354 4.51337 3.29688 4.8467 3.29688 5.2267V5.67337C2.69021 6.1267 2.29688 6.85337 2.29688 7.67337V5.2267C2.29688 4.43337 2.78354 3.7267 3.52354 3.4467L8.81687 1.4467C8.96354 1.39337 9.11688 1.3667 9.26354 1.3667C9.93021 1.3667 10.5302 1.9067 10.5302 2.63337Z" fill="url(#paint0_linear_1279_562)"/>
<path d="M14.964 9.66671V10.3334C14.964 10.5134 14.824 10.66 14.6373 10.6667H13.664C13.3107 10.6667 12.9907 10.4067 12.964 10.06C12.944 9.85337 13.024 9.66004 13.1573 9.52671C13.2773 9.40004 13.444 9.33337 13.624 9.33337H14.6307C14.824 9.34004 14.964 9.48671 14.964 9.66671Z" fill="url(#paint1_linear_1279_562)"/>
<path d="M13.6169 8.63329H14.2969C14.6635 8.63329 14.9635 8.33329 14.9635 7.96663V7.67329C14.9635 6.29329 13.8369 5.16663 12.4569 5.16663H4.80354C4.23688 5.16663 3.71687 5.35329 3.29687 5.67329C2.69021 6.12663 2.29688 6.85329 2.29688 7.67329V12.16C2.29688 13.54 3.42354 14.6666 4.80354 14.6666H12.4569C13.8369 14.6666 14.9635 13.54 14.9635 12.16V12.0333C14.9635 11.6666 14.6635 11.3666 14.2969 11.3666H13.7169C13.0769 11.3666 12.4635 10.9733 12.2969 10.3533C12.1569 9.84663 12.3235 9.35996 12.6569 9.03329C12.9035 8.77996 13.2435 8.63329 13.6169 8.63329ZM9.96354 8.49996H5.29687C5.02354 8.49996 4.79687 8.27329 4.79687 7.99996C4.79687 7.72663 5.02354 7.49996 5.29687 7.49996H9.96354C10.2369 7.49996 10.4635 7.72663 10.4635 7.99996C10.4635 8.27329 10.2369 8.49996 9.96354 8.49996Z" fill="url(#paint2_linear_1279_562)"/>
<defs>
<linearGradient id="paint0_linear_1279_562" x1="-19.489" y1="-12.795" x2="15.5657" y2="-9.04027" gradientUnits="userSpaceOnUse">
<stop stop-color="#0338D1"/>
<stop offset="0.38297" stop-color="#1CFCFC"/>
<stop offset="0.6239" stop-color="#36FCFC"/>
<stop offset="0.885417" stop-color="#0495E7"/>
</linearGradient>
<linearGradient id="paint1_linear_1279_562" x1="7.66076" y1="6.33935" x2="16.1578" y2="7.38667" gradientUnits="userSpaceOnUse">
<stop stop-color="#0338D1"/>
<stop offset="0.38297" stop-color="#1CFCFC"/>
<stop offset="0.6239" stop-color="#36FCFC"/>
<stop offset="0.885417" stop-color="#0495E7"/>
</linearGradient>
<linearGradient id="paint2_linear_1279_562" x1="-31.2198" y1="-16.1658" x2="22.6841" y2="-10.2689" gradientUnits="userSpaceOnUse">
<stop stop-color="#0338D1"/>
<stop offset="0.38297" stop-color="#1CFCFC"/>
<stop offset="0.6239" stop-color="#36FCFC"/>
<stop offset="0.885417" stop-color="#0495E7"/>
</linearGradient>
</defs>
</svg>
