<svg width="25" height="24" viewBox="0 0 25 24" fill="none" xmlns="http://www.w3.org/2000/svg">
<path d="M18.042 13.55C17.622 13.96 17.382 14.55 17.442 15.18C17.532 16.26 18.522 17.05 19.602 17.05H21.502V18.24C21.502 20.31 19.812 22 17.742 22H6.26195C4.19195 22 2.50195 20.31 2.50195 18.24V11.51C2.50195 9.44001 4.19195 7.75 6.26195 7.75H17.742C19.812 7.75 21.502 9.44001 21.502 11.51V12.95H19.482C18.922 12.95 18.412 13.17 18.042 13.55Z" stroke="white" stroke-width="1.5" stroke-linecap="round" stroke-linejoin="round"/>
<path d="M2.50195 12.41V7.84004C2.50195 6.65004 3.23195 5.59 4.34195 5.17L12.282 2.17C13.522 1.7 14.852 2.62003 14.852 3.95003V7.75002" stroke="white" stroke-width="1.5" stroke-linecap="round" stroke-linejoin="round"/>
<path d="M22.5608 13.9702V16.0302C22.5608 16.5802 22.1208 17.0302 21.5608 17.0502H19.6008C18.5208 17.0502 17.5308 16.2602 17.4408 15.1802C17.3808 14.5502 17.6208 13.9602 18.0408 13.5502C18.4108 13.1702 18.9208 12.9502 19.4808 12.9502H21.5608C22.1208 12.9702 22.5608 13.4202 22.5608 13.9702Z" stroke="white" stroke-width="1.5" stroke-linecap="round" stroke-linejoin="round"/>
<path d="M7.00195 12H14.002" stroke="white" stroke-width="1.5" stroke-linecap="round" stroke-linejoin="round"/>
</svg>
