<svg width="32" height="32" viewBox="0 0 32 32" fill="none" xmlns="http://www.w3.org/2000/svg">
<g filter="url(#filter0_b_1445_4652)">
<circle cx="16" cy="16" r="16" fill="url(#paint0_radial_1445_4652)" fill-opacity="0.4"/>
<circle cx="16" cy="16" r="15.5" stroke="url(#paint1_radial_1445_4652)"/>
<circle cx="16" cy="16" r="15.5" stroke="url(#paint2_radial_1445_4652)"/>
</g>
<g filter="url(#filter1_di_1445_4652)">
<path fill-rule="evenodd" clip-rule="evenodd" d="M23.6264 9.57589C24.4663 9.80035 25.1276 10.4619 25.3521 11.3016C25.7601 12.824 25.7601 15.9999 25.7601 15.9999C25.7601 15.9999 25.7601 19.176 25.3521 20.6983C25.1276 21.538 24.4663 22.1996 23.6264 22.4239C22.1042 22.8319 16.0001 22.8319 16.0001 22.8319C16.0001 22.8319 9.89611 22.8319 8.37386 22.4239C7.534 22.1996 6.87266 21.538 6.64819 20.6983C6.24023 19.176 6.24023 15.9999 6.24023 15.9999C6.24023 15.9999 6.24023 12.824 6.64819 11.3016C6.87266 10.4619 7.534 9.80035 8.37386 9.57589C9.89611 9.16809 16.0001 9.16809 16.0001 9.16809C16.0001 9.16809 22.1042 9.16809 23.6264 9.57589ZM19.1193 16.0001L14.0482 18.9279V13.0719L19.1193 16.0001Z" fill="white"/>
</g>
<defs>
<filter id="filter0_b_1445_4652" x="-5" y="-5" width="42" height="42" filterUnits="userSpaceOnUse" color-interpolation-filters="sRGB">
<feFlood flood-opacity="0" result="BackgroundImageFix"/>
<feGaussianBlur in="BackgroundImage" stdDeviation="2.5"/>
<feComposite in2="SourceAlpha" operator="in" result="effect1_backgroundBlur_1445_4652"/>
<feBlend mode="normal" in="SourceGraphic" in2="effect1_backgroundBlur_1445_4652" result="shape"/>
</filter>
<filter id="filter1_di_1445_4652" x="1.24023" y="4.16809" width="29.52" height="23.6638" filterUnits="userSpaceOnUse" color-interpolation-filters="sRGB">
<feFlood flood-opacity="0" result="BackgroundImageFix"/>
<feColorMatrix in="SourceAlpha" type="matrix" values="0 0 0 0 0 0 0 0 0 0 0 0 0 0 0 0 0 0 127 0" result="hardAlpha"/>
<feOffset/>
<feGaussianBlur stdDeviation="2.5"/>
<feComposite in2="hardAlpha" operator="out"/>
<feColorMatrix type="matrix" values="0 0 0 0 0.920833 0 0 0 0 0.149635 0 0 0 0 0.149635 0 0 0 0.55 0"/>
<feBlend mode="normal" in2="BackgroundImageFix" result="effect1_dropShadow_1445_4652"/>
<feBlend mode="normal" in="SourceGraphic" in2="effect1_dropShadow_1445_4652" result="shape"/>
<feColorMatrix in="SourceAlpha" type="matrix" values="0 0 0 0 0 0 0 0 0 0 0 0 0 0 0 0 0 0 127 0" result="hardAlpha"/>
<feOffset dx="1" dy="1"/>
<feGaussianBlur stdDeviation="1.5"/>
<feComposite in2="hardAlpha" operator="arithmetic" k2="-1" k3="1"/>
<feColorMatrix type="matrix" values="0 0 0 0 0.958333 0 0 0 0 0.0638889 0 0 0 0 0.0638889 0 0 0 0.3 0"/>
<feBlend mode="normal" in2="shape" result="effect2_innerShadow_1445_4652"/>
</filter>
<radialGradient id="paint0_radial_1445_4652" cx="0" cy="0" r="1" gradientUnits="userSpaceOnUse" gradientTransform="translate(2.67682) rotate(48.0195) scale(47.8414 34.7508)">
<stop stop-color="#FF6666" stop-opacity="0.36"/>
<stop offset="1" stop-color="#FF6666" stop-opacity="0"/>
</radialGradient>
<radialGradient id="paint1_radial_1445_4652" cx="0" cy="0" r="1" gradientUnits="userSpaceOnUse" gradientTransform="translate(-17.0386 3.27368) rotate(35.1112) scale(36.8924 21.7935)">
<stop stop-color="#FF9F9F"/>
<stop offset="1" stop-color="white" stop-opacity="0.06"/>
</radialGradient>
<radialGradient id="paint2_radial_1445_4652" cx="0" cy="0" r="1" gradientUnits="userSpaceOnUse" gradientTransform="translate(41.3684 21.4163) rotate(161.34) scale(26.7443 18.1139)">
<stop stop-color="#FF6666"/>
<stop offset="1" stop-color="#FF4F4F" stop-opacity="0"/>
</radialGradient>
</defs>
</svg>
